<svg width="35" height="35" viewBox="0 0 35 35" fill="none" xmlns="http://www.w3.org/2000/svg">
    <g clip-path="url(#clip0)">
        <path
            d="M35 17.5001C35 27.1648 27.1647 35.0001 17.5 35.0001C7.83533 35.0001 0 27.1648 0 17.5001C0 7.83546 7.83533 0.00012207 17.5 0.00012207C27.1647 0.00012207 35 7.83546 35 17.5001Z"
            fill="black" />
        <path
            d="M20.6143 10.3367C21.683 10.3367 23.0946 10.3367 23.0946 10.3367V6.63367C23.0946 6.63367 21.606 6.63367 19.583 6.63367C17.56 6.63367 14.928 7.931 14.928 11.7087C14.928 12.4157 14.928 13.4423 14.928 14.6463H11.5703V18.4823H14.928C14.928 23.2587 14.928 28.4597 14.928 28.4597H16.4166H17.5996H18.9343C18.9343 28.4597 18.9343 23.0697 18.9343 18.4823H22.2733L22.8263 14.6463H18.9366C18.9366 13.3863 18.9366 12.4763 18.9366 12.2033C18.9366 10.9457 19.5456 10.3367 20.6143 10.3367Z"
            fill="white" />
    </g>
    <defs>
        <clipPath id="clip0">
            <rect width="35" height="35" fill="white" transform="translate(0 0.00012207)" />
        </clipPath>
    </defs>
</svg>