<svg width="296" height="40" viewBox="0 0 296 40" fill="none" xmlns="http://www.w3.org/2000/svg">
<path d="M0 27.4L39.2 29.1L60 40L57.9 29.9L107.1 30.8L108.9 0H0.6L0 27.4ZM117.6 14.1H121.2L123.1 4H126.7L127.3 0.8H116.6L115.9 4H119.4L117.6 14.1ZM129.8 14.1L130.7 9.2H135.2L134.3 14.1H137.9L140.2 0.9H136.6L135.7 5.8H131.2L132.1 0.9H128.5L126.2 14.1H129.8ZM148.9 14.1L149.4 11H144.1L144.5 9H148.8L149.3 5.9H145L145.4 3.8H150.5L151 0.7H142.3L140 14.1H148.9ZM160.9 0.8H156.3L149.7 14H153.4L154.4 12H158.8L159.1 14H162.8L160.9 0.8ZM155.8 8.8L157.8 4.7H158L158.4 8.8H155.8ZM165.9 14.1H169.5L171.3 4H174.9L175.5 0.8H164.8L164.2 4H167.7L165.9 14.1ZM183.4 14L183.9 10.9H178.6L179 8.9H183.3L183.8 5.8H179.5L179.9 3.8H185L185.5 0.7H176.8L174.5 14H183.4ZM188.7 14.1L189.4 10H190.6L191.2 12.3C191.5 13.4 192.2 14 193.6 14H195.4L195.9 10.8H195.3C194.8 10.8 194.5 10.6 194.2 10L194 9.3C195.8 8.3 196.9 6.4 196.9 4.5C196.9 2.2 195.3 0.8 192.9 0.8H187.5L185.2 14.1H188.7ZM190.5 4H192C192.7 4 193.2 4.5 193.2 5.2C193.2 6.3 192.4 7.1 191.3 7.1H190L190.5 4ZM201.6 10.1H203.4C206.7 10.1 209 7.7 209 4.5C209 2.3 207.3 0.8 205 0.8H199.7L197.3 14H200.9L201.6 10.1ZM202.9 4H204.1C204.8 4 205.3 4.4 205.3 5.2C205.3 6.3 204.5 7.2 203.4 7.2H202.2L202.9 4ZM212.5 14.1L213.2 10H214.4L215 12.3C215.3 13.4 216 14 217.4 14H219.2L219.7 10.8H219.1C218.6 10.8 218.3 10.6 218 10L217.6 9.1C219.4 8.1 220.5 6.2 220.5 4.3C220.5 2 218.9 0.6 216.5 0.6H211.1L208.8 13.9H212.5V14.1ZM214.4 4H215.8C216.5 4 217 4.5 217 5.2C217 6.3 216.2 7.1 215.1 7.1H213.8L214.4 4ZM227.3 14.4C232.2 14.4 235.8 10.7 235.8 6.2C235.8 2.9 233.5 0.6 229.9 0.6C225 0.6 221.4 4.3 221.4 8.8C221.4 12.1 223.6 14.3 227.3 14.4ZM229.2 4.1C230.9 4.1 232 5.3 232 6.8C232 9.1 230.1 10.9 228 10.9C226.3 10.9 225.2 9.7 225.2 8.2C225.2 5.9 227 4.1 229.2 4.1ZM240.6 14.2C243.8 14.2 245.8 12.6 246.4 9.4L248 0.8H240.6L240 4H243.7L242.7 9.4C242.6 10.2 242 11.1 240.9 11.1C239.8 11.1 239.5 10.4 239.7 9.6H236.4C235.9 12.3 237.2 14.3 240.6 14.2ZM256.3 14L256.8 10.9H251.5L251.9 8.9H256.2L256.7 5.8H252.4L252.8 3.8H257.9L258.4 0.7H249.7L247.5 14H256.3ZM261.6 14.1L262.3 10.4L263.9 8.8L265.2 12.5C265.6 13.6 266.2 14.2 267.6 14.2H269.3L269.8 11H269.4C268.9 11 268.5 10.8 268.3 10.1L266.8 5.8L271.9 0.8H267.4L263.2 5.1H263.1L263.9 0.8H260.3L258 14.1H261.6ZM273.9 14.1H277.5L279.3 4H282.9L283.5 0.8H272.8L272.2 4H275.7L273.9 14.1ZM116.3 20.1H121.7V20.3L114.9 27.2L114.3 30.3H124.6L125.1 27.2H119.5V27L126.4 20.1L126.9 17H116.9L116.3 20.1ZM136.3 17L134.8 25C134.5 26.3 133.7 27 132.5 27C131.2 27 130.6 26.3 130.9 25L132.4 17H128.8L127.3 25.1C126.7 28.3 128.5 30.5 131.9 30.5C135.6 30.5 137.7 28.5 138.3 25.1L139.8 17H136.3ZM147.6 24.9L146.1 17.1H141.7L139.3 30.3H142.8L144 23.5H144.1L145.3 30.3H148L151.4 23.8H151.5L150.3 30.3H153.8L156.2 17.1H151.6L147.6 24.9ZM171.2 17L169.9 24.4H169.8L166.8 17H163L160.6 30.2H164.1L165.4 22.8H165.5L168.5 30.2H172.3L174.7 17H171.2ZM181.3 16.9C177.8 16.9 175.6 18.8 175.6 21.9C175.6 26 181.4 24.9 181.4 26.3C181.4 26.9 180.7 27.3 179.6 27.3C178.4 27.3 177.7 26.7 177.9 25.9H174.5C173.9 28.7 175.6 30.6 179.1 30.7C183.2 30.7 185.3 28.6 185.3 25.5C185.3 21.4 179.3 22.7 179.3 21.2C179.3 20.7 179.9 20.3 180.8 20.3C181.8 20.3 182.2 20.8 182.1 21.5H185.7C186.2 18.5 184.4 16.9 181.3 16.9ZM195.8 17L194.3 25C194 26.3 193.2 27 192 27C190.7 27 190.1 26.3 190.4 25L191.9 17H188.3L186.8 25.1C186.2 28.3 188.1 30.5 191.4 30.5C195.1 30.5 197.2 28.5 197.8 25.1L199.3 17H195.8ZM199.4 26H205L205.5 23H199.9L199.4 26ZM216.4 26.3L214.9 22L220 17H215.5L211.3 21.3H211.2L212 17H208.4L206 30.2H209.6L210.3 26.5L212 25L213.3 28.7C213.7 29.8 214.3 30.4 215.7 30.4H217.4L217.9 27.2H217.5C217 27.2 216.6 27 216.4 26.3ZM226.8 16.8C221.9 16.8 218.3 20.5 218.3 25C218.3 28.2 220.5 30.5 224.2 30.6C229.1 30.6 232.7 26.9 232.7 22.4C232.7 19.1 230.3 16.8 226.8 16.8ZM224.9 27C223.2 27 222.1 25.8 222.1 24.3C222.1 22 224 20.2 226.1 20.2C227.8 20.2 228.9 21.4 228.9 22.9C228.9 25.3 227 27 224.9 27ZM245.2 17L241.3 24.8H241.2L239.8 17H235.4L233 30.3H236.5L237.7 23.5H237.8L239 30.3H241.7L245.1 23.8H245.2L244 30.3H247.5L249.9 17.1H245.2V17ZM257.3 17H252L249.6 30.2H253.2L253.9 26.2H255.7C259 26.2 261.3 23.8 261.3 20.6C261.3 18.6 259.6 17 257.3 17ZM255.7 23.2H254.5L255.1 20H256.3C257 20 257.5 20.4 257.5 21.2C257.6 22.3 256.8 23.2 255.7 23.2ZM267 17H263.4L261 30.3H269.4L270 27.1H265.1L267 17ZM275.7 25.1H280L280.5 22H276.2L276.6 20H281.7L282.2 16.9H273.5L271.2 30.1H280L280.5 27H275.2L275.7 25.1ZM295.2 17.1H291.2L288.7 20.6H288.6L287.4 17.1H283.4L285.9 23.5L280.7 30.3H284.8L287.5 26.3H287.6L288.8 30.3H292.9L290.3 23.5L295.2 17.1Z" fill="black"/>
<path d="M17.5999 9.8H12.0999L7.6999 15.3V9.8H3.3999V24.8H7.7999V21.4L9.3999 19.5L12.3999 24.9H17.5999L12.0999 16.2L17.5999 9.8ZM24.7999 9.7C20.1999 9.7 17.1999 12.9 17.1999 17.7C17.1999 22.2 20.2999 25.3 25.0999 25.3C27.9999 25.3 30.2999 24.4 31.7999 22.6L28.2999 19.8C27.4999 20.6 26.5999 21.1 25.3999 21.1C23.8999 21.1 23.1999 20.3 22.8999 19.2H32.2999V18C32.2999 13.1 29.2999 9.7 24.7999 9.7ZM22.7999 16.1C23.0999 14.7 23.7999 13.9 24.7999 14C25.7999 14 26.4999 14.7 26.7999 16.1H22.7999ZM33.8999 24.9H39.3999V10.2H33.8999V24.9ZM33.8999 9H39.4999V5H33.8999V9ZM50.9999 9.7C48.7999 9.7 47.4999 10.6 46.9999 11.7V10.2H41.5999V24.9H46.9999V16.7C46.9999 15.3 47.4999 14.4 48.6999 14.4C49.6999 14.4 50.2999 14.9 50.2999 16.4V25H55.7999V15C55.7999 11.2 53.2999 9.7 50.9999 9.7ZM58.0999 24.8H63.7999V19.6H58.0999V24.8ZM58.0999 11.8L59.4999 18.3H62.4999L63.8999 11.8V5H57.9999V11.8H58.0999ZM70.4999 10.9C69.1999 10.9 68.2999 11.6 68.2999 12.8C68.2999 14.6 70.9999 13.9 70.9999 15C70.9999 15.6 70.4999 16 69.6999 16C68.8999 16 68.4999 15.5 68.5999 14.9H67.6999C67.4999 16 68.1999 16.8 69.4999 16.7C70.8999 16.7 71.8999 16 71.8999 14.7C71.8999 13 69.1999 13.6 69.1999 12.5C69.1999 12 69.5999 11.6 70.3999 11.6C71.1999 11.6 71.3999 12 71.2999 12.5H72.1999C72.3999 11.4 71.4999 10.9 70.4999 10.9ZM75.2999 16.8C76.8999 16.8 77.9999 16 78.3999 14.8H77.3999C76.9999 15.5 76.2999 16 75.3999 16C74.3999 16 73.6999 15.3 73.6999 14.3C73.6999 12.9 74.8999 11.7 76.1999 11.7C76.9999 11.7 77.5999 12.2 77.6999 13H78.6999C78.5999 11.7 77.6999 10.9 76.3999 10.9C74.2999 10.9 72.7999 12.5 72.7999 14.4C72.7999 15.8 73.6999 16.8 75.2999 16.8ZM83.6999 13.4H80.8999L81.2999 11H80.3999L79.2999 16.7H80.1999L80.5999 14.2H83.3999L82.9999 16.7H83.8999L84.9999 11H84.0999L83.6999 13.4ZM88.8999 15.9H86.5999L87.4999 10.9H86.5999L85.4999 16.7H88.6999L88.8999 15.9ZM92.1999 16.7C93.6999 16.7 94.4999 15.9 94.7999 14.5L95.3999 10.9H94.4999L93.8999 14.5C93.6999 15.3 93.1999 15.8 92.2999 15.8C91.3999 15.8 90.9999 15.3 91.1999 14.5L91.7999 10.9H90.8999L90.2999 14.5C90.0999 15.9 90.7999 16.8 92.1999 16.7ZM98.5999 10.9C97.2999 10.9 96.3999 11.6 96.3999 12.8C96.3999 14.6 99.0999 13.9 99.0999 15C99.0999 15.6 98.5999 16 97.7999 16C96.9999 16 96.5999 15.5 96.6999 14.9H95.7999C95.5999 16 96.2999 16.8 97.5999 16.7C98.9999 16.7 99.9999 16 99.9999 14.7C99.9999 13 97.2999 13.6 97.2999 12.5C97.2999 12 97.6999 11.6 98.4999 11.6C99.1999 11.6 99.4999 12 99.3999 12.5H100.3C100.5 11.4 99.5999 10.9 98.5999 10.9ZM103.5 11.7C104.2 11.7 104.5 12.1 104.4 12.6H105.3C105.6 11.4 104.7 10.9 103.7 10.9C102.4 10.9 101.5 11.6 101.5 12.8C101.5 14.6 104.2 13.9 104.2 15C104.2 15.6 103.7 16 102.9 16C102.1 16 101.7 15.5 101.8 14.9H100.9C100.7 16 101.4 16.8 102.7 16.7C104.1 16.7 105.1 16 105.1 14.7C105.1 13 102.4 13.6 102.4 12.5C102.3 12.1 102.8 11.7 103.5 11.7ZM70.4999 18.9C69.1999 18.9 68.2999 19.6 68.2999 20.8C68.2999 22.6 70.9999 21.9 70.9999 23C70.9999 23.6 70.4999 24 69.6999 24C68.8999 24 68.4999 23.5 68.5999 22.9H67.6999C67.4999 24 68.1999 24.8 69.4999 24.7C70.8999 24.7 71.8999 24 71.8999 22.7C71.8999 21 69.1999 21.6 69.1999 20.5C69.1999 20 69.5999 19.6 70.3999 19.6C71.1999 19.6 71.3999 20 71.2999 20.5H72.1999C72.3999 19.4 71.4999 18.9 70.4999 18.9ZM73.0999 19.8H74.7999L73.8999 24.8H74.7999L75.6999 19.8H77.3999L77.4999 19H73.2999L73.0999 19.8ZM82.1999 20.5C82.1999 19.6 81.5999 19 80.5999 19H78.5999L77.4999 24.7H78.3999L78.7999 22.5H79.9999L80.3999 24.1C80.5999 24.6 80.7999 24.7 81.2999 24.7H81.6999L81.8999 23.9H81.5999C81.2999 23.9 81.1999 23.8 81.1999 23.5L80.7999 22.3C81.5999 22.1 82.1999 21.5 82.1999 20.5ZM80.0999 21.8L78.9999 21.7L79.3999 19.7H80.4999C81.0999 19.7 81.3999 20.1 81.3999 20.5C81.2999 21.3 80.7999 21.8 80.0999 21.8ZM82.8999 24.7H83.7999L84.8999 19H83.9999L82.8999 24.7ZM88.9999 19.8C89.7999 19.8 90.3999 20.3 90.4999 21H91.3999C91.2999 19.7 90.3999 18.9 89.0999 18.9C86.9999 18.9 85.4999 20.5 85.4999 22.4C85.4999 23.8 86.4999 24.8 87.9999 24.9C89.5999 24.9 90.6999 24.1 91.0999 22.9H90.0999C89.6999 23.6 88.9999 24.1 88.0999 24.1C87.0999 24.1 86.3999 23.4 86.3999 22.4C86.4999 21 87.5999 19.8 88.9999 19.8ZM96.3999 21.4H93.5999L93.9999 19H93.0999L91.9999 24.7H92.9999L93.3999 22.2H96.1999L95.7999 24.7H96.6999L97.7999 19H96.8999L96.3999 21.4Z" fill="white"/>
</svg>
