<svg width="198" height="52" fill="none" xmlns="http://www.w3.org/2000/svg"><path d="M27.24 30.894h-.94l-.305 1.686h.94a.991.991 0 001.056-1.024c-.005-.367-.282-.662-.751-.662zM20.448 14.564c-.695 0-1.188.47-1.376 1.446h2.757c-.188-.958-.695-1.446-1.38-1.446z" fill="#000"/><path d="M54.033 0L0 3.518l2.095 34.251 25.44 2.32L38.722 51.83l-.032-10.802 11.196.644L54.033 0zm-21.67 11.887h3.758v1.103c.403-.728 1.314-1.37 2.817-1.37 1.691 0 3.405 1.037 3.405 3.672v6.852h-3.832v-5.918c0-1.056-.47-1.409-1.113-1.409-.817 0-1.198.719-1.198 1.62v5.707h-3.837V11.887zm4.49 16.738a1.297 1.297 0 001.325-1.17l.559-3.015h.713l-.559 3.02a2.048 2.048 0 01-2.15 1.846 1.409 1.409 0 01-1.532-1.836l.56-3.03h.737l-.56 3.02c-.112.705.17 1.165.907 1.165zm-4.602-4.185h.737l-.76 4.12h1.99l-.122.657h-2.733l.888-4.777zm-5.392-16.1h3.912v2.781H26.86v-2.78zm3.875 3.547v10.257h-3.837V11.887h3.837zM11.807 22.153l-2.24-3.837L8.42 19.67v2.475H5.265V11.342H8.42v3.945l3.16-3.93h3.917L11.6 15.944l3.922 6.232-3.715-.024zm8.585 9.454h-.747c.09-.47-.183-.775-.756-.775s-.995.33-.995.785c0 .878 2.245.375 2.245 1.845 0 1.057-.794 1.668-2.015 1.668-1.024 0-1.658-.64-1.49-1.56h.743c-.09.545.244.883.902.883.657 0 1.103-.314 1.103-.845 0-.94-2.226-.404-2.226-1.879 0-.939.794-1.559 1.879-1.559.789 0 1.526.437 1.357 1.437zm0-5.823h-.747c.09-.47-.183-.77-.756-.77s-.995.323-.995.784c0 .873 2.245.375 2.245 1.84 0 1.057-.794 1.668-2.015 1.668-1.024 0-1.658-.634-1.49-1.56h.743c-.09.55.244.884.902.884.657 0 1.103-.315 1.103-.846 0-.939-2.226-.404-2.226-1.878 0-.94.794-1.555 1.879-1.555.789 0 1.526.437 1.357 1.433zm-5.241-8.618c0-3.344 2.127-5.57 5.311-5.57 3.185 0 5.232 2.404 5.232 5.734v.794H19.12a1.63 1.63 0 001.77 1.343 2.617 2.617 0 002.016-.892l2.442 1.953c-1.071 1.23-2.72 1.879-4.669 1.879-3.301.028-5.527-2.071-5.527-5.241zm8.735 7.171a1.821 1.821 0 011.977 1.7h-.789a1.212 1.212 0 00-1.31-1.005 2.165 2.165 0 00-2.085 2.151 1.345 1.345 0 001.409 1.41 1.809 1.809 0 001.681-1.001h.808a2.62 2.62 0 01-2.62 1.695 1.928 1.928 0 01-2.072-1.986 2.959 2.959 0 013.001-2.95v-.014zm-.582 6.575l-.761 4.128h-.733l.766-4.123h-1.442l.122-.658h3.574l-.127.658-1.4-.005zm4.565 3.189c.084.226.188.287.376.287h.24l-.118.648h-.395a.685.685 0 01-.733-.536l-.422-1.277h-.94l-.338 1.817h-.742l.888-4.78h1.71a1.23 1.23 0 011.357 1.249 1.663 1.663 0 01-1.23 1.625l.347.967zm2.029.94h-.738l.897-4.782h.738l-.897 4.781zm.22-5.824h-.732l.38-2.08h-2.32l-.38 2.08h-.738l.912-4.777h.737l-.376 2.01h2.32l.376-2.01h.7l-.879 4.777zm3.232 5.213a1.812 1.812 0 001.686-.996h.807a2.625 2.625 0 01-2.62 1.696 1.926 1.926 0 01-2.071-1.987 2.961 2.961 0 012.987-2.973 1.827 1.827 0 011.977 1.7h-.79a1.217 1.217 0 00-1.314-1 2.16 2.16 0 00-2.08 2.15 1.342 1.342 0 001.413 1.41h.005zm7.02.61h-.732l.38-2.085h-2.32l-.38 2.085h-.737l.887-4.78h.738l-.376 2.014h2.32l.376-2.015h.728l-.883 4.781zm3.082-9.256h-.742c.089-.47-.184-.77-.757-.77-.572 0-1 .323-1 .784 0 .873 2.25.375 2.25 1.84 0 1.057-.794 1.668-2.015 1.668-1.024 0-1.658-.634-1.489-1.56h.719c-.09.55.244.884.897.884s1.108-.315 1.108-.846c0-.939-2.226-.404-2.226-1.878 0-.94.794-1.555 1.879-1.555.812 0 1.55.437 1.376 1.433zm4.095 0h-.742c.09-.47-.183-.77-.756-.77s-1 .323-1 .784c0 .873 2.25.375 2.25 1.84 0 1.057-.795 1.668-2.016 1.668-1.023 0-1.657-.634-1.488-1.56h.718c-.09.55.244.884.897.884s1.109-.315 1.109-.846c0-.939-2.227-.404-2.227-1.878 0-.94.794-1.555 1.879-1.555.794 0 1.55.437 1.376 1.433zm.601-3.64h-4.001v-3.64h4.025l-.024 3.64zm.047-9.088l-1.005 4.49h-2.104l-1.005-4.49V8.36H48.2l-.005 4.696zM59.397 13.878H56.64l.47-2.423h8.359l-.47 2.423h-2.775l-1.456 7.857H57.95l1.447-7.857zM66.624 11.464h2.818l-.704 3.758h3.508l.705-3.758h2.818l-1.912 10.28H71.04l.705-3.803H68.24l-.704 3.804h-2.818l1.906-10.28zM77.383 11.464h6.8l-.44 2.381h-3.979L79.47 15.4h3.362l-.437 2.381h-3.362l-.296 1.573h4.128l-.441 2.39h-6.946l1.906-10.28zM88.293 11.464h3.658l1.456 10.28H90.44l-.178-1.554h-3.433l-.766 1.555H83.1l5.194-10.28zm1.69 6.228l-.352-3.156h-.145l-1.531 3.156h2.029zM97.255 13.878h-2.762l.47-2.423h8.36l-.47 2.423h-2.776l-1.45 7.867h-2.819l1.447-7.867zM104.477 11.464h6.801l-.442 2.381h-3.978l-.296 1.555h3.363l-.441 2.381h-3.344l-.292 1.573h4.124l-.442 2.39h-6.96l1.907-10.28zM112.744 11.464h4.259c1.879 0 3.17 1.146 3.17 2.865a4.36 4.36 0 01-2.287 3.7l.263.691a.8.8 0 00.864.602h.517l-.441 2.423h-1.409c-1.104 0-1.677-.47-1.912-1.32l-.512-1.808h-1.014l-.587 3.128h-2.818l1.907-10.28zm3.085 4.763a1.464 1.464 0 001.348-.92c.071-.18.107-.372.103-.565a.883.883 0 00-.295-.687.903.903 0 00-.714-.224h-1.146l-.442 2.396h1.146zM122.362 11.464h4.114c1.85 0 3.17 1.16 3.17 2.893a4.261 4.261 0 01-1.285 3.117 4.25 4.25 0 01-3.148 1.204h-1.367l-.573 3.067h-2.818l1.907-10.28zm2.921 4.833a1.49 1.49 0 001.456-1.512.913.913 0 00-1-.94h-.996l-.47 2.452h1.01zM131.351 11.464h4.255c1.878 0 3.174 1.146 3.174 2.865a4.367 4.367 0 01-2.291 3.701l.263.69a.803.803 0 00.868.602h.512l-.441 2.423h-1.409c-1.099 0-1.672-.47-1.907-1.32l-.516-1.808h-1.015l-.568 3.128h-2.818l1.893-10.28zm3.081 4.763a1.466 1.466 0 001.455-1.485.9.9 0 00-1.014-.91h-1.146l-.441 2.395h1.146zM139.339 17.635c0-3.499 2.775-6.359 6.622-6.359 2.818 0 4.626 1.761 4.626 4.316 0 3.466-2.776 6.345-6.608 6.345-2.893 0-4.64-1.794-4.64-4.302zm8.266-1.559a1.997 1.997 0 00-.607-1.523 1.995 1.995 0 00-1.54-.562 3.146 3.146 0 00-2.239.93 3.139 3.139 0 00-.917 2.245c0 1.207.808 2.07 2.175 2.07a3.126 3.126 0 002.899-1.953 3.14 3.14 0 00.229-1.207zM151.085 18.208h2.555a.883.883 0 00.94 1.16 1.46 1.46 0 001.408-1.31l.794-4.18h-2.968l.47-2.423h5.772l-1.245 6.744c-.47 2.423-2.057 3.715-4.527 3.715-2.588.01-3.598-1.592-3.199-3.706zM161.601 11.464h6.795l-.441 2.381h-3.978l-.291 1.555h3.362l-.441 2.381h-3.363l-.296 1.573h4.129l-.442 2.39h-6.955l1.921-10.28zM176.987 19.321h.338l-.442 2.424h-1.305a1.8 1.8 0 01-1.907-1.32l-1.029-2.818-1.291 1.263-.573 2.893h-2.818l1.911-10.28h2.818l-.634 3.334h.085l3.287-3.362h3.509l-3.964 3.879 1.174 3.377a.786.786 0 00.841.61zM181.908 13.878h-2.762l.47-2.423h8.355l-.47 2.423h-2.775l-1.456 7.857h-2.818l1.456-7.857zM55.845 32.302l5.345-5.372.028-.132h-4.17l.441-2.381h7.824l-.436 2.381-5.364 5.396-.028.132h4.387l-.442 2.395h-8.012l.427-2.419zM65.506 30.691l1.184-6.274h2.818l-1.16 6.256c-.174.986.22 1.559 1.235 1.559a1.728 1.728 0 001.794-1.56l1.16-6.255h2.818l-1.16 6.274c-.498 2.673-2.16 4.199-5.04 4.199-2.62 0-4.104-1.757-3.649-4.199zM76.872 24.417h3.438l1.084 6.105h.09l3.052-6.105h3.659l-1.911 10.28h-2.687l.94-5.006h-.09l-2.644 5.006h-2.085l-.94-5.344h-.084l-.986 5.344h-2.715l1.879-10.28zM93.46 24.417h3.01l2.41 5.715h.089l1.066-5.715h2.714l-1.907 10.28h-3.015l-2.409-5.71h-.08l-1.056 5.71h-2.7l1.878-10.28zM102.585 31.255h2.672c-.117.634.353 1.085 1.334 1.085.822 0 1.381-.291 1.381-.79 0-1.117-4.537-.206-4.537-3.423 0-2.348 1.775-3.874 4.466-3.874 2.391 0 3.758 1.216 3.48 3.39h-2.789c.084-.497-.296-.897-1.062-.897-.69 0-1.202.296-1.202.738 0 1.16 4.697.188 4.697 3.348 0 2.466-1.677 4.081-4.861 4.081-2.687-.023-4.006-1.479-3.579-3.658zM112.184 30.691l1.16-6.274h2.818l-1.16 6.256c-.178.986.221 1.559 1.231 1.559a1.722 1.722 0 001.794-1.56l1.16-6.255h2.817l-1.16 6.274c-.497 2.673-2.155 4.199-5.034 4.199-2.597 0-4.081-1.757-3.626-4.199zM122.465 29.043h4.392l-.428 2.292h-4.391l.427-2.292zM136.239 32.274h.338l-.441 2.424h-1.306a1.802 1.802 0 01-1.911-1.32l-1.029-2.818-1.291 1.264-.573 2.893h-2.818l1.907-10.281h2.818l-.634 3.363h.089l3.287-3.363h3.499l-3.968 3.88 1.179 3.376a.782.782 0 00.854.582z" fill="#000"/><path d="M136.916 30.588c0-3.499 2.776-6.359 6.622-6.359 2.818 0 4.626 1.761 4.626 4.316 0 3.466-2.776 6.345-6.608 6.345-2.893 0-4.64-1.794-4.64-4.302zm8.266-1.56a2.007 2.007 0 00-2.142-2.084 3.146 3.146 0 00-2.908 1.95 3.14 3.14 0 00-.238 1.206c0 1.207.807 2.07 2.174 2.07a3.127 3.127 0 003.114-3.141zM150.353 24.417h3.447l1.09 6.105h.094l3.057-6.105h3.654l-1.907 10.28h-2.715l.94-5.006h-.089l-2.645 5.006h-2.085l-.939-5.344h-.089l-.982 5.344h-2.719l1.888-10.28zM163.3 24.417h4.114c1.851 0 3.171 1.16 3.171 2.893a4.262 4.262 0 01-2.735 4.044 4.259 4.259 0 01-1.699.277h-1.367l-.573 3.066h-2.817l1.906-10.28zm2.922 4.832a1.486 1.486 0 001.455-1.512.913.913 0 00-1-.94h-.996l-.469 2.453h1.01zM172.29 24.417h2.818l-1.437 7.777h3.855l-.469 2.494h-6.669l1.902-10.271zM180.203 24.417h6.801l-.442 2.381h-3.982l-.291 1.555h3.362l-.441 2.38h-3.363l-.291 1.57h4.124l-.442 2.394h-6.946l1.911-10.28zM189.897 29.377l-1.94-4.979h3.156l.939 2.734h.09l1.953-2.734h3.156l-3.79 4.979 2.029 5.302h-3.217l-.939-3.086h-.089l-2.114 3.086h-3.217l3.983-5.302z" fill="#000"/></svg>