<svg width="53" height="296" fill="none" xmlns="http://www.w3.org/2000/svg"><path d="M17.3122 296v-5.541c0-2.686-2.0707-4.813-4.5146-4.813-1.2499 0-1.9961.728-2.3133 1.399l-.1119-.018c-.67159-1.269-1.95881-2.015-3.32066-2.015-1.62302 0-2.79831 1.175-2.79831 3.451v5.112L17.3122 296zm-7.8166-4.272l-2.83562-.504v-1.921c0-.821.44773-1.325 1.10067-1.325.97008 0 1.73495.821 1.73495 1.847v1.903zm5.3354.989l-3.2087-.597v-1.847c0-.84.3918-1.53 1.2499-1.53 1.138 0 1.9588.858 1.9588 2.071v1.903zM17.5547 279.094c0-3.545-1.9588-5.578-5.2235-6.175l-8.07777-1.511v2.966l8.05917 1.492c1.5297.28 2.4625 1.269 2.4625 2.799 0 1.585-.9328 2.182-2.4439 1.921l-8.07777-1.511v2.966l8.09647 1.493c3.0595.559 5.2048-1.194 5.2048-4.44zM17.3122 271.196v-2.854l-8.20836-1.53v-.112l8.20836-3.637v-3.097l-13.05877-2.425v2.854l8.20837 1.53v.112l-8.20837 3.637v3.097l13.05877 2.425zM17.3122 257.2v-4.925c0-4.701-3.358-7.798-7.92853-7.798-3.04083 0-5.13024 2.034-5.13024 5.653v4.645L17.3122 257.2zm-2.5558-3.432l-7.94718-1.455v-1.567c0-1.679.83949-3.153 2.9289-3.153 2.87298 0 5.01828 1.959 5.01828 4.626v1.549zM17.3122 243.605v-8.469l-2.5371-.467v5.522l-2.7797-.522v-4.515l-2.51846-.485v4.534l-2.70503-.504v-5.317l-2.51848-.466v8.264l13.05877 2.425zM17.5547 228.578c0-3.787-1.9028-5.914-4.9437-5.914-3.99221 0-2.72364 6.026-4.55187 6.026-.83949 0-1.41781-.84-1.41781-1.996 0-1.213.63428-1.791 1.52974-1.642v-2.929c-2.761-.41-4.16015 1.437-4.16015 4.16 0 3.228 1.82823 5.448 4.66385 5.448 4.06684 0 2.77964-5.895 4.64524-5.895.97 0 1.5297.914 1.5297 2.257 0 1.474-.7089 2.201-1.7909 2.015v2.817c2.6864.503 4.4959-1.194 4.4959-4.347zM17.3122 219.056v-3.47l-8.82399-3.731v-.168l8.82399-.447v-3.489l-13.05877-5.82v3.246l8.48817 3.47v.149l-8.48817.373v3.638l8.48817 3.526v.149l-8.48817.336v3.208l13.05877-.97zM17.3122 202.638v-8.47l-2.5371-.466v5.522l-2.7797-.523v-4.514l-2.51846-.485v4.533l-2.70503-.504v-5.316l-2.51848-.467v8.265l13.05877 2.425zM17.3122 191.976v-2.948l-13.05877-2.425v2.948l13.05877 2.425zM17.3122 183.415v-2.966l-10.50298-1.941v-3.656l-2.55579-.485v10.26l2.55579.485v-3.656l10.50298 1.959zM17.3122 174.824v-8.47l-2.5371-.466v5.522l-2.7797-.523v-4.514l-2.51846-.485v4.533l-2.70503-.504v-5.316l-2.51848-.467v8.264l13.05877 2.426zM19.7561 164.964v-2.071l-4.8877-2.015v2.817l4.8877 1.269zM13.9542 144.196l-4.58919 1.753-5.11159-5.26v3.693l4.981 4.944v.112l-4.981-.933.00001 2.948 13.05877 2.425v-2.948l-3.8244-.746-1.8095-1.865 4.0482-1.567c.9887-.392 1.5857-1.045 1.5857-2.276v-1.381l-2.5558-.466v.485c0 .541-.2052.858-.8022 1.082zM2.76099 135.299c0-.915-.74621-1.661-1.66033-1.661-.634282 0-1.100667.429-1.100667 1.138 0 .877.783527 1.661 1.660327 1.661.63429 0 1.10067-.467 1.10067-1.138zm0-3.713c0-.877-.78352-1.642-1.64167-1.642-.634287 0-1.1193272.467-1.1193272 1.138 0 .915.7462152 1.661 1.6789872 1.661.63428 0 1.08201-.429 1.08201-1.157zm14.79371 4.366c0-3.545-1.9588-5.578-5.2235-6.175l-8.07778-1.512v2.967l8.05918 1.492c1.5297.28 2.4625 1.269 2.4625 2.798 0 1.586-.9328 2.183-2.4439 1.922l-8.07778-1.511v2.966l8.09648 1.492c3.0595.56 5.2048-1.193 5.2048-4.439zM17.3122 128.054V125.2l-8.20837-1.53v-.112l8.20837-3.638v-3.097l-13.05878-2.425v2.855l8.20838 1.529v.112l-8.20838 3.638v3.097l13.05878 2.425zM17.5547 109.693c0-3.787-1.9028-5.914-4.9437-5.914-3.99221 0-2.72364 6.026-4.55187 6.026-.8395 0-1.41782-.84-1.41782-1.996 0-1.213.63429-1.791 1.52975-1.642v-2.929c-2.761-.41-4.16016 1.436-4.16016 4.16 0 3.227 1.82823 5.447 4.66385 5.447 4.06685 0 2.77965-5.895 4.64515-5.895.9701 0 1.5298.914 1.5298 2.258 0 1.473-.7089 2.201-1.7909 2.014v2.817c2.6864.504 4.4959-1.194 4.4959-4.346zM17.3122 99.6673v-2.9662L6.80921 94.761v-3.6565l-2.55579-.485V100.88l2.55579.485v-3.6565l10.50299 1.9588zM17.3122 91.0762v-8.0591l-2.6304-.5037v5.1116L4.25342 85.7035v2.9475l13.05878 2.4252zM17.3122 80.8697v-8.4696l-2.5371-.4664v5.522l-2.7797-.5223v-4.5146l-2.51847-.4851v4.5333l-2.70503-.5037v-5.3168l-2.51848-.4664v8.2644l13.05878 2.4252zM17.3122 70.2077v-2.9476l-4.3654-.8022v-1.8095l2.7797-.8582c1.026-.2985 1.5857-.9701 1.5857-2.2573v-1.5111l-2.5558-.4664v.653c0 .541-.1679.8395-.7649 1.082l-1.623.5783c-.8395-1.8469-2.57442-3.0968-4.57055-3.0968-2.08941 0-3.54453 1.5484-3.54453 3.899v5.1116l13.05878 2.4252zm-6.8838-4.2348l-3.6565-.6716v-1.8655c0-1.0074.55966-1.6231 1.39916-1.6231 1.32453 0 2.25734 1.0074 2.25734 2.276v1.8842zM17.3122 57.9425v-2.9476L4.25342 52.5697v2.9476l13.05878 2.4252zM17.5547 47.8705c0-3.7871-1.9028-5.9138-4.9437-5.9138-3.99221 0-2.72365 6.0257-4.55188 6.0257-.83949 0-1.41781-.8395-1.41781-1.9961 0-1.2126.63429-1.791 1.52975-1.6417v-2.9289c-2.761-.4104-4.16016 1.4365-4.16016 4.1602 0 3.2273 1.82823 5.4473 4.66385 5.4473 4.06685 0 2.77965-5.8951 4.64515-5.8951.9701 0 1.5298.9141 1.5298 2.2573 0 1.4738-.7089 2.2013-1.7909 2.0148v2.817c2.6863.5037 4.4959-1.194 4.4959-4.3467zM17.5547 34.4125c0-3.9363-2.164-6.6414-5.0369-7.5555v3.2274c1.2499.6343 2.2013 2.0521 2.2013 3.8057 0 1.9588-1.2499 3.1528-3.0781 3.1528-2.6118 0-4.79448-2.0894-4.79448-4.6079 0-1.679.97008-2.761 2.25731-2.873v-3.2087c-2.87294.0187-5.09293 2.0148-5.09293 5.5594 0 4.8317 3.71243 8.2456 8.1338 8.2456 3.1527 0 5.41-2.1827 5.41-5.7458zM17.3122 25.4828v-2.9476l-5.1675-.9514v-5.2235l5.1675.9701v-2.9662L4.25342 11.939v2.9662l5.05561.9328v5.2235L4.25342 20.11v2.9476l13.05878 2.4252zM17.3122 11.6144V3.14487l-2.5371-.4664v5.522l-2.7797-.52237V3.16351l-2.51847-.48504v4.53326L6.7719 6.70801V1.39124L4.25342.924866V9.18918L17.3122 11.6144zM35.2774 290.758c0-3.545-1.9589-5.578-5.2235-6.175l-8.0778-1.511v2.966l8.0591 1.492c1.5297.28 2.4625 1.269 2.4625 2.799 0 1.585-.9328 2.182-2.4438 1.921l-8.0778-1.511v2.966l8.0964 1.493c3.0595.559 5.2049-1.194 5.2049-4.44zM35.0348 282.86v-2.854l-8.2083-1.53v-.112l8.2083-3.637v-3.097l-13.0587-2.425v2.854l8.2083 1.53v.112l-8.2083 3.637v3.097l13.0587 2.425zM35.0348 268.864v-4.925c0-4.701-3.3579-7.798-7.9285-7.798-3.0408 0-5.1302 2.034-5.1302 5.653v4.645l13.0587 2.425zm-2.5557-3.432l-7.9472-1.455v-1.567c0-1.679.8394-3.153 2.9289-3.153 2.8729 0 5.0183 1.959 5.0183 4.626v1.549zM35.0348 250.758v-10.055l-2.5371-.466v6.249l-.1492-.037-7.8166-7.649-2.5558-.485v9.794l2.5184.466v-5.969l.1493.037 7.8166 7.649 2.5744.466zM35.0348 238.427v-2.948l-13.0587-2.425v2.948l13.0587 2.425zM35.0348 228.952v-3.041l-13.0587-7.276v3.246l9.0665 4.702v.149l-9.0665 1.324v3.284l13.0587-2.388zM35.0348 219.344v-2.948l-13.0587-2.425v2.948l13.0587 2.425zM35.0348 213.637v-8.059l-2.6304-.504v5.112l-10.4283-1.922v2.948l13.0587 2.425zM35.2774 197.816c0-4.384-2.7237-7.611-7.3689-8.021v6.828l2.4252.447v-3.544c1.1939.447 2.1827 1.977 2.1827 3.824 0 1.996-1.2873 3.153-3.1155 3.153-2.6677 0-4.8317-2.071-4.8317-4.627 0-1.604.8395-2.611 1.9588-2.854v-3.246c-2.7051.131-4.7945 2.145-4.7945 5.578 0 4.832 3.6938 8.264 8.1525 8.264 3.1527 0 5.3914-2.238 5.3914-5.802zM35.0348 188.87v-8.47l-2.5371-.466v5.522l-2.7796-.522v-4.515l-2.5185-.485v4.533l-2.7051-.503v-5.317l-2.5184-.467v8.265l13.0587 2.425zM35.2774 173.843c0-3.788-1.9029-5.914-4.9437-5.914-3.9923 0-2.7237 6.025-4.5519 6.025-.8395 0-1.4178-.839-1.4178-1.996 0-1.212.6342-1.791 1.5297-1.641v-2.929c-2.761-.411-4.1602 1.436-4.1602 4.16 0 3.227 1.8283 5.447 4.6639 5.447 4.0669 0 2.7796-5.895 4.6452-5.895.9701 0 1.5297.914 1.5297 2.257 0 1.474-.7089 2.202-1.7909 2.015v2.817c2.6864.504 4.496-1.194 4.496-4.346zM35.0348 166.671v-8.469l-2.5371-.467v5.522l-2.7796-.522v-4.514l-2.5185-.486v4.534l-2.7051-.504v-5.317l-2.5184-.466v8.264l13.0587 2.425zM35.0348 156.009v-8.059l-2.6304-.503v5.111l-10.4283-1.921v2.947l13.0587 2.425zM35.0348 145.803v-8.059l-2.6304-.504v5.112l-10.4283-1.922v2.948l13.0587 2.425zM35.2774 131.231c0-3.787-1.9029-5.914-4.9437-5.914-3.9923 0-2.7237 6.026-4.5519 6.026-.8395 0-1.4179-.84-1.4179-1.996 0-1.213.6343-1.791 1.5298-1.642v-2.929c-2.761-.41-4.1602 1.437-4.1602 4.16 0 3.228 1.8283 5.448 4.6639 5.448 4.0669 0 2.7796-5.895 4.6452-5.895.9701 0 1.5297.914 1.5297 2.257 0 1.474-.7089 2.201-1.7909 2.015v2.817c2.6864.503 4.496-1.194 4.496-4.347zM35.2774 117.773c0-3.936-2.1641-6.641-5.037-7.555v3.227c1.2499.634 2.2013 2.052 2.2013 3.806 0 1.958-1.2499 3.152-3.0781 3.152-2.6118 0-4.7944-2.089-4.7944-4.607 0-1.679.97-2.762 2.2573-2.873v-3.209c-2.873.019-5.093 2.015-5.093 5.559 0 4.832 3.7125 8.246 8.1338 8.246 3.1528 0 5.4101-2.183 5.4101-5.746zM35.0348 108.843v-2.947l-5.1675-.952v-5.2232l5.1675.9702v-2.9663l-13.0587-2.4252v2.9662l5.0556.9328v5.2235l-5.0556-.951v2.947l13.0587 2.425zM35.0348 96.0196v-3.1527l-2.3132-1.194v-4.925l2.3132-.3358v-3.0968L21.9761 85.386v3.7871l13.0587 6.8465zm-4.9436-5.5593l-4.8691-2.4998v-.1679l4.8691-.7089v3.3766zM35.0348 81.5984v-2.9476l-5.0183-.9327v-4.7758l-2.5184-.4664v4.7758l-3.0036-.5597v-5.3168l-2.5184-.4663v8.2643l13.0587 2.4252zM35.0348 68.2643v-2.9662l-10.503-1.9402v-3.6564l-2.5557-.4851v10.2605l2.5557.4851v-3.6565l10.503 1.9588zM35.0348 59.6732v-8.0591l-2.6304-.5037v5.1116l-10.4283-1.9216v2.9476l13.0587 2.4252zM35.0348 49.4667v-2.9476l-13.0587-2.4252v2.9475l13.0587 2.4253zM35.2774 37.5824c0-3.9363-2.1641-6.6413-5.037-7.5554v3.2274c1.2499.6342 2.2013 2.0521 2.2013 3.8057 0 1.9588-1.2499 3.1528-3.0781 3.1528-2.6118 0-4.7944-2.0895-4.7944-4.6079 0-1.679.97-2.761 2.2573-2.873v-3.2087c-2.873.0186-5.093 2.0148-5.093 5.5593 0 4.8318 3.7125 8.2457 8.1338 8.2457 3.1528 0 5.4101-2.1827 5.4101-5.7459zM35.0348 28.6528v-2.9476l-5.1675-.9514v-5.2235l5.1675.9701v-2.9662l-13.0587-2.4253v2.9663l5.0556.9327v5.2235l-5.0556-.9514v2.9476l13.0587 2.4252zM35.0348 14.7844V6.31482l-2.5371-.46637v5.52195l-2.7797-.5223V6.33346l-2.5184-.48501v4.53325l-2.7051-.50371V4.56122l-2.5184-.4664v8.26438l13.0587 2.4252zM52.7575 296v-2.948l-13.0588-2.425v2.948L52.7575 296zM52.7575 290.293v-2.854l-8.2084-1.53v-.112l8.2084-3.637v-3.097l-13.0588-2.425v2.854l8.2084 1.53v.112l-8.2084 3.637v3.097l13.0588 2.425zM52.7575 273.443v-2.966l-10.503-1.94v-3.657l-2.5558-.485v10.261l2.5558.485v-3.657l10.503 1.959zM52.7575 264.852v-8.47l-2.5372-.466v5.522l-2.7796-.522v-4.515l-2.5185-.485v4.533l-2.705-.503v-5.317l-2.5185-.467v8.265l13.0588 2.425zM52.7575 254.19v-2.948l-4.3654-.802v-1.809l2.7797-.858c1.026-.299 1.5857-.971 1.5857-2.258v-1.511l-2.5558-.466v.653c0 .541-.1679.839-.7649 1.082l-1.623.578c-.8395-1.847-2.5744-3.097-4.5706-3.097-2.0894 0-3.5445 1.549-3.5445 3.899v5.112l13.0588 2.425zm-6.8839-4.235l-3.6564-.671v-1.866c0-1.007.5596-1.623 1.3991-1.623 1.3246 0 2.2573 1.007 2.2573 2.276v1.884zM52.7575 238.812v-3.041l-13.0588-7.275v3.246l9.0665 4.701v.149l-9.0665 1.325v3.283l13.0588-2.388zM52.7575 229.204v-8.469l-2.5372-.467v5.522l-2.7796-.522v-4.515l-2.5185-.485v4.534l-2.705-.504v-5.317l-2.5185-.466v8.264l13.0588 2.425zM52.7575 218.542v-2.854l-8.2084-1.53v-.112l8.2084-3.638v-3.096l-13.0588-2.426v2.855l8.2084 1.529v.112l-8.2084 3.638v3.097l13.0588 2.425zM52.7575 201.692v-2.966l-10.503-1.94v-3.657l-2.5558-.485v10.261l2.5558.485v-3.657l10.503 1.959zM52.7575 193.101v-2.948l-13.0588-2.425v2.948l13.0588 2.425zM53 181.161c0-4.757-3.6565-8.321-8.0778-8.321-3.2087 0-5.466 2.276-5.466 5.802 0 4.776 3.6564 8.321 8.0964 8.321 3.1901 0 5.4474-2.202 5.4474-5.802zm-2.8356-.541c0 1.996-1.2872 3.227-3.1155 3.227-2.6304 0-4.7571-2.145-4.7571-4.682 0-1.978 1.3245-3.209 3.1341-3.209 2.6304 0 4.7385 2.164 4.7385 4.664zM52.7575 171.959v-2.854l-8.2084-1.53v-.112l8.2084-3.638v-3.096l-13.0588-2.426v2.855l8.2084 1.529v.112l-8.2084 3.638v3.097l13.0588 2.425zM52.7575 157.963v-8.469l-2.5372-.467v5.522l-2.7796-.522v-4.515l-2.5185-.485v4.533l-2.705-.503v-5.317l-2.5185-.466v8.264l13.0588 2.425zM52.7575 147.301v-2.854l-8.2084-1.53v-.112l8.2084-3.638v-3.096l-13.0588-2.426v2.855l8.2084 1.529v.112l-8.2084 3.638v3.097l13.0588 2.425z" fill="#000"/></svg>