<svg width="121" height="278" fill="none" xmlns="http://www.w3.org/2000/svg">
    <g fill="#000">
        <path
            d="M47.336 282.115v-33.491l-9.864-1.833v22.139l-.648-.141c-1.944-.282-3.24-1.48-4.824-4.16l-5.904-10.717c-3.312-5.852-8.352-12.127-17.28-12.127C1.688 241.785-4 247.003-4 256.451c0 11.14 7.776 18.049 16.416 19.389v-10.364a7.121 7.121 0 01-5.976-7.122c0-3.454 1.872-5.217 4.392-5.217 3.024 0 5.256 2.397 6.768 5.076l5.76 10.224c4.176 7.474 8.352 10.858 14.976 12.056l9 1.622zM47.336 229.1v-11.069l-50.4-9.166v10.223c5.112.917 7.704 4.231 7.704 13.749l8.424 1.481v-11.493l34.272 6.275zM48.272 203.843c0-4.019-3.24-7.262-7.128-7.262-2.808 0-4.824 1.974-4.824 5.077 0 3.807 3.384 7.191 7.128 7.191 2.88 0 4.824-2.115 4.824-5.006zM47.336 186.548v-11.069l-50.4-9.166v10.223c5.112.917 7.704 4.231 7.704 13.749l8.424 1.481v-11.493l34.272 6.275zM48.272 147.991c0-9.942-5.976-18.121-16.776-20.024l-18.72-3.385C2.048 122.679-4 130.434-4 139.177c0 9.871 5.976 18.05 16.776 19.954l18.72 3.384c10.728 1.974 16.776-5.782 16.776-14.524zm-10.728-1.622c0 3.525-2.592 5.781-6.768 5.006l-17.28-3.173c-4.176-.776-6.768-3.666-6.768-7.403 0-3.526 2.592-5.852 6.768-5.006l17.28 3.102c4.032.705 6.768 3.525 6.768 7.474zM48.272 120.117c0-4.019-3.24-7.262-7.128-7.262-2.808 0-4.824 1.974-4.824 5.076 0 3.807 3.384 7.192 7.128 7.192 2.88 0 4.824-2.116 4.824-5.006zM29.984 103.589v-38.85l-9.36-1.691v38.849l9.36 1.692zM119.336 279.506v-12.55l-40.752-24.254-9.72-1.763v32.856l10.152 1.904v-20.517l.504.07 39.816 24.254zM120.272 247.29c0-4.019-3.24-7.262-7.128-7.262-2.808 0-4.824 1.974-4.824 5.077 0 3.807 3.384 7.191 7.128 7.191 2.88 0 4.824-2.115 4.824-5.006zM119.336 229.995v-11.069l-50.4-9.166v10.223c5.112.917 7.704 4.231 7.704 13.749l8.424 1.481V223.72l34.272 6.275zM119.336 197.29v-11.07l-50.4-9.166v10.224c5.112.916 7.704 4.23 7.704 13.748l8.424 1.481v-11.493l34.272 6.276zM120.272 172.033c0-4.019-3.24-7.262-7.128-7.262-2.808 0-4.824 1.974-4.824 5.076 0 3.807 3.384 7.192 7.128 7.192 2.88 0 4.824-2.116 4.824-5.006zM119.336 157.902v-33.49l-9.864-1.834v22.139l-.648-.141c-1.944-.282-3.24-1.48-4.824-4.159L98.096 129.7c-3.312-5.853-8.352-12.128-17.28-12.128-7.128 0-12.816 5.218-12.816 14.666 0 11.14 7.776 18.049 16.416 19.389v-10.364a7.121 7.121 0 01-5.976-7.122c0-3.454 1.872-5.217 4.392-5.217 3.024 0 5.256 2.397 6.768 5.076l5.76 10.224c4.176 7.474 8.352 10.858 14.976 12.057l9 1.621zM120.272 99.035c0-9.941-5.976-18.12-16.776-20.024l-18.72-3.384C74.048 73.723 68 81.479 68 90.222c0 9.871 5.976 18.05 16.776 19.953l18.72 3.385c10.728 1.974 16.776-5.782 16.776-14.525zm-10.728-1.621c0 3.525-2.592 5.781-6.768 5.006l-17.28-3.173c-4.176-.776-6.768-3.667-6.768-7.403 0-3.526 2.592-5.852 6.768-5.006l17.28 3.102c4.032.705 6.768 3.525 6.768 7.474zM119.336 73.35V39.858l-9.864-1.834v22.14l-.648-.142c-1.944-.282-3.24-1.48-4.824-4.16l-5.904-10.716c-3.312-5.852-8.352-12.127-17.28-12.127C73.688 33.02 68 38.236 68 47.684c0 11.14 7.776 18.05 16.416 19.39V56.71a7.12 7.12 0 01-5.976-7.121c0-3.455 1.872-5.218 4.392-5.218 3.024 0 5.256 2.397 6.768 5.076l5.76 10.224c4.176 7.474 8.352 10.858 14.976 12.057l9 1.621zM119.336 20.334V9.264L68.936.1v10.223c5.112.917 7.704 4.23 7.704 13.75l8.424 1.48V14.059l34.272 6.275z" />
    </g>
</svg>