<svg width="317" height="58" fill="none" xmlns="http://www.w3.org/2000/svg"><path d="M.379883 18.9999H6.31988c2.88 0 5.16002-2.22 5.16002-4.84 0-1.34-.78-2.14-1.50002-2.48l.02-.12c1.36002-.72 2.16002-2.09996 2.16002-3.55996 0-1.74-1.26-3-3.70002-3h-5.48L.379883 18.9999zm4.579997-8.38l.54-3.03996h2.06c.88 0 1.42.48 1.42 1.18 0 1.04-.88 1.85996-1.98 1.85996h-2.04zm-1.06 5.72l.64-3.44h1.98c.9 0 1.64.42 1.64 1.34 0 1.22-.92 2.1-2.22 2.1h-2.04zM18.5046 19.2599c3.8 0 5.98-2.1 6.62-5.6l1.62-8.65996h-3.18l-1.6 8.63996c-.3 1.64-1.36 2.64-3 2.64-1.7 0-2.34-1-2.06-2.62l1.62-8.65996h-3.18l-1.6 8.67996c-.6 3.28 1.28 5.58 4.76 5.58zM26.9713 18.9999h3.06l1.64-8.8h.12l3.9 8.8h3.32l2.6-13.99996h-3.06l-1.64 8.79996h-.12l-3.9-8.79996h-3.32l-2.6 13.99996zM41.976 18.9999h5.28c5.04 0 8.36-3.6 8.36-8.5 0-3.25996-2.18-5.49996-6.06-5.49996h-4.98l-2.6 13.99996zm3.68-2.74l1.56-8.51996h1.68c1.8 0 3.38.9 3.38 3.13996 0 3.08-2.1 5.38-4.96 5.38h-1.66zM56.551 18.9999h9.08l.5-2.72h-5.92l.56-2.98h4.84l.52-2.7h-4.86l.54-2.89996h5.7l.5-2.7h-8.86l-2.6 13.99996zM72.6614 19.2599c4.06 0 6.34-2.04 6.34-5.3 0-4.27996-6.4599-2.92-6.4599-4.87996 0-.9.9-1.52 2.1399-1.52 1.3001 0 1.92.68 1.7601 1.64h3.14c.44-2.96-1.54-4.46-4.46-4.46-3.46 0-5.8401 1.96-5.8401 5 0 4.35996 6.32 2.97996 6.32 4.97996 0 1.04-.9799 1.64-2.42 1.64-1.58 0-2.36-.76-2.16-1.92h-3.02c-.54 2.88 1.28 4.82 4.66 4.82zM82.8694 18.9999h3.72l4-9.45996h.18l.48 9.45996h3.74l6.2396-13.99996h-3.4796l-3.72 9.09996h-.16l-.4-9.09996h-3.9l-3.78 9.09996h-.16l-.36-9.09996h-3.44l1.04 13.99996zM100.471 18.9999h9.08l.5-2.72h-5.92l.56-2.98h4.84l.52-2.7h-4.86l.54-2.89996h5.7l.5-2.7h-8.86l-2.6 13.99996zM111.902 18.9999h3.16l2.6-13.99996h-3.16l-2.6 13.99996zM121.08 18.9999h3.18l2.08-11.25996h3.92l.52-2.74h-11l-.52 2.74h3.92l-2.1 11.25996zM130.29 18.9999h9.08l.5-2.72h-5.92l.56-2.98h4.84l.52-2.7h-4.86l.54-2.89996h5.7l.5-2.7h-8.86l-2.6 13.99996zM140.861 21.6199h2.22l2.159-5.24h-3.019l-1.36 5.24zM163.126 15.3999l-1.88-4.92 5.64-5.47996h-3.96l-5.3 5.33996h-.12l1-5.33996h-3.16l-2.6 13.99996h3.16l.8-4.1 2-1.94 1.68 4.34c.42 1.06 1.12 1.7 2.44 1.7h1.48l.5-2.74h-.52c-.58 0-.92-.22-1.16-.86zM172.664 3.39994c.98 0 1.78-.8 1.78-1.78 0-.679999-.46-1.179999-1.22-1.179999-.94 0-1.78.839999-1.78 1.779999 0 .68.5 1.18 1.22 1.18zm3.98 0c.94 0 1.76-.84 1.76-1.76 0-.679999-.5-1.199999-1.22-1.199999-.98 0-1.78.799999-1.78 1.799999 0 .68.46 1.16 1.24 1.16zm-4.68 15.85996c3.8 0 5.98-2.1 6.62-5.6l1.62-8.65996h-3.18l-1.6 8.63996c-.3 1.64-1.36 2.64-3 2.64-1.7 0-2.34-1-2.06-2.62l1.62-8.65996h-3.18l-1.6 8.67996c-.6 3.28 1.28 5.58 4.76 5.58zM180.431 18.9999h3.06l1.64-8.8h.12l3.9 8.8h3.32l2.6-13.99996h-3.06l-1.64 8.79996h-.12l-3.9-8.79996h-3.32l-2.6 13.99996zM200.115 19.2599c4.06 0 6.34-2.04 6.34-5.3 0-4.27996-6.46-2.92-6.46-4.87996 0-.9.9-1.52 2.14-1.52 1.3 0 1.92.68 1.76 1.64h3.14c.44-2.96-1.54-4.46-4.46-4.46-3.46 0-5.84 1.96-5.84 5 0 4.35996 6.32 2.97996 6.32 4.97996 0 1.04-.98 1.64-2.42 1.64-1.58 0-2.36-.76-2.16-1.92h-3.02c-.54 2.88 1.28 4.82 4.66 4.82zM210.863 18.9999h3.18l2.08-11.25996h3.92l.52-2.74h-11l-.52 2.74h3.92l-2.1 11.25996zM220.074 18.9999h8.64l.54-2.82h-5.48l2.06-11.17996h-3.16l-2.6 13.99996zM231.016 18.9999h9.08l.5-2.72h-5.92l.56-2.98h4.84l.52-2.7h-4.86l.54-2.89996h5.7l.5-2.7h-8.86l-2.6 13.99996zM242.446 18.9999h3.16l.86-4.68h1.94l.92 2.98c.32 1.1 1.04 1.7 2.42 1.7h1.62l.5-2.74h-.7c-.58 0-.9-.18-1.16-.82l-.62-1.74c1.98-.9 3.32-2.76 3.32-4.89996 0-2.24-1.66-3.8-4.18-3.8h-5.48l-2.6 13.99996zm4.54-7.38l.72-3.91996h2c1.08 0 1.74.6 1.74 1.5 0 1.41996-1.08 2.41996-2.44 2.41996h-2.02zM255.595 18.9999h3.16l2.6-13.99996h-3.16l-2.6 13.99996zM266.393 19.2599c4.06 0 6.34-2.04 6.34-5.3 0-4.27996-6.46-2.92-6.46-4.87996 0-.9.9-1.52 2.14-1.52 1.3 0 1.92.68 1.76 1.64h3.14c.44-2.96-1.54-4.46-4.46-4.46-3.46 0-5.84 1.96-5.84 5 0 4.35996 6.32 2.97996 6.32 4.97996 0 1.04-.98 1.64-2.42 1.64-1.58 0-2.36-.76-2.16-1.92h-3.02c-.54 2.88 1.28 4.82 4.66 4.82zM280.821 19.2599c4.22 0 7.12-2.32 8.1-5.4h-3.46c-.68 1.34-2.2 2.36-4.08 2.36-2.1 0-3.38-1.34-3.38-3.3 0-2.8 2.24-5.13996 4.94-5.13996 1.8 0 2.96 1.04 3.08 2.41996h3.44c-.02-3.07996-2.16-5.45996-5.96-5.45996-5.18 0-8.84 3.98-8.84 8.71996 0 3.38 2.34 5.8 6.16 5.8zM290.395 18.9999h3.16l1.02-5.54h5.6l-1.04 5.54h3.18l2.6-13.99996h-3.18l-1 5.41996h-5.6l1.02-5.41996h-3.16l-2.6 13.99996zM305.263 18.9999h9.08l.5-2.72h-5.92l.56-2.98h4.84l.52-2.7h-4.86l.54-2.89996h5.7l.5-2.7h-8.86l-2.6 13.99996zM5.99988 38.2599c3.8 0 5.98002-2.1 6.62002-5.6l1.62-8.66h-3.18l-1.60002 8.64c-.3 1.64-1.36 2.64-3 2.64-1.7 0-2.34-1-2.06-2.62l1.62-8.66h-3.18l-1.6 8.68c-.599997 3.28 1.28 5.58 4.76 5.58zM14.4666 37.9999h3.06l1.64-8.8h.12l3.9 8.8h3.32l2.6-14h-3.06l-1.64 8.8h-.12l-3.9-8.8h-3.32l-2.6 14zM29.4713 37.9999h5.28c5.04 0 8.36-3.6 8.36-8.5 0-3.26-2.18-5.5-6.06-5.5h-4.98l-2.6 14zm3.68-2.74l1.56-8.52h1.68c1.8 0 3.38.9 3.38 3.14 0 3.08-2.1 5.38-4.96 5.38h-1.66zM48.8825 37.9999h10.78l.5-2.72h-6.7l.04-.16 8.2-8.38.52-2.74h-10.5l-.5 2.7h6.4l-.04.16-8.2 8.38-.5 2.76zM62.1025 37.9999h3.16l2.6-14h-3.16l-2.6 14zM72.2605 37.9999h3.26l7.8-14h-3.48l-5.04 9.72h-.16l-1.42-9.72h-3.52l2.56 14zM82.5611 37.9999h3.16l2.6-14h-3.16l-2.6 14zM88.6791 37.9999h8.64l.54-2.82h-5.48l2.06-11.18h-3.16l-2.6 14zM105.64 38.2599c4.7 0 8.16-2.92 8.6-7.9h-7.32l-.48 2.6h3.8c-.48 1.28-2.12 2.34-4.1 2.34-2.14 0-3.38-1.38-3.38-3.34 0-2.86 2.22-5.18 4.96-5.18 1.72 0 2.8.9 3.06 2.1h3.48c-.14-2.9-2.3-5.14-5.98-5.14-5.18 0-8.86 3.96-8.86 8.74 0 3.38 2.4 5.78 6.22 5.78zM115.231 37.9999h9.08l.5-2.72h-5.92l.56-2.98h4.84l.52-2.7h-4.86l.54-2.9h5.7l.5-2.7h-8.86l-2.6 14zM131.342 38.2599c4.06 0 6.34-2.04 6.34-5.3 0-4.28-6.46-2.92-6.46-4.88 0-.9.9-1.52 2.14-1.52 1.3 0 1.92.68 1.76 1.64h3.14c.44-2.96-1.54-4.46-4.46-4.46-3.46 0-5.84 1.96-5.84 5 0 4.36 6.32 2.98 6.32 4.98 0 1.04-.98 1.64-2.42 1.64-1.58 0-2.36-.76-2.16-1.92h-3.02c-.54 2.88 1.28 4.82 4.66 4.82zM139.03 37.9999h9.08l.5-2.72h-5.92l.56-2.98h4.84l.52-2.7h-4.86l.54-2.9h5.7l.5-2.7h-8.86l-2.6 14zM150.46 37.9999h8.64l.54-2.82h-5.48l2.06-11.18h-3.16l-2.6 14zM161.403 37.9999h8.64l.54-2.82h-5.48l2.06-11.18h-3.16l-2.6 14zM177.025 38.2599c4.06 0 6.34-2.04 6.34-5.3 0-4.28-6.46-2.92-6.46-4.88 0-.9.9-1.52 2.14-1.52 1.3 0 1.92.68 1.76 1.64h3.14c.44-2.96-1.54-4.46-4.46-4.46-3.46 0-5.84 1.96-5.84 5 0 4.36 6.32 2.98 6.32 4.98 0 1.04-.98 1.64-2.42 1.64-1.58 0-2.36-.76-2.16-1.92h-3.02c-.54 2.88 1.28 4.82 4.66 4.82zM191.453 38.2599c4.22 0 7.12-2.32 8.1-5.4h-3.46c-.68 1.34-2.2 2.36-4.08 2.36-2.1 0-3.38-1.34-3.38-3.3 0-2.8 2.24-5.14 4.94-5.14 1.8 0 2.96 1.04 3.08 2.42h3.44c-.02-3.08-2.16-5.46-5.96-5.46-5.18 0-8.84 3.98-8.84 8.72 0 3.38 2.34 5.8 6.16 5.8zM201.026 37.9999h3.16l1.02-5.54h5.6l-1.04 5.54h3.18l2.6-14h-3.18l-1 5.42h-5.6l1.02-5.42h-3.16l-2.6 14zM214.774 37.9999h3.38l1.28-2.48h5.28l.36 2.48h3.32l-2.22-14h-4.06l-7.34 14zm5.96-5.3l2.68-5.22h.18l.76 5.22h-3.62zM230.235 37.9999h3.16l1-5.38h5.12l.5-2.7h-5.12l.6-3.22h5.7l.5-2.7h-8.86l-2.6 14zM244.53 37.9999h3.18l2.08-11.26h3.92l.52-2.74h-11l-.52 2.74h3.92l-2.1 11.26zM253.74 37.9999h8.64l.54-2.82h-5.48l2.06-11.18h-3.16l-2.6 14zM264.682 37.9999h3.16l2.6-14h-3.16l-2.6 14zM277.423 38.2599c4.22 0 7.12-2.32 8.1-5.4h-3.46c-.68 1.34-2.2 2.36-4.08 2.36-2.1 0-3.38-1.34-3.38-3.3 0-2.8 2.24-5.14 4.94-5.14 1.8 0 2.96 1.04 3.08 2.42h3.44c-.02-3.08-2.16-5.46-5.96-5.46-5.18 0-8.84 3.98-8.84 8.72 0 3.38 2.34 5.8 6.16 5.8zM286.996 37.9999h3.16l1.02-5.54h5.6l-1.04 5.54h3.18l2.6-14h-3.18l-1 5.42h-5.6l1.02-5.42h-3.16l-2.6 14zM301.864 37.9999h9.08l.5-2.72h-5.92l.56-2.98h4.84l.52-2.7h-4.86l.54-2.9h5.7l.5-2.7h-8.86l-2.6 14zM.379883 56.9999H3.53988l2.6-14h-3.16l-2.599997 14zM6.49785 56.9999h3.06l1.64005-8.8h.12l3.9 8.8h3.3199l2.6001-14h-3.06l-1.64 8.8h-.12l-3.9-8.8H9.09785l-2.6 14zM24.5625 56.9999h3.18l2.08-11.26h3.92l.52-2.74h-11l-.52 2.74h3.92l-2.1 11.26zM33.7729 56.9999h9.0799l.5-2.72h-5.92l.56-2.98h4.84l.52-2.7h-4.86l.54-2.9h5.7l.5-2.7h-8.86l-2.5999 14zM45.2033 56.9999h3.16l.86-4.68h1.94l.92 2.98c.32 1.1 1.04 1.7 2.42 1.7h1.62l.5-2.74h-.7c-.58 0-.9-.18-1.16-.82l-.62-1.74c1.98-.9 3.32-2.76 3.32-4.9 0-2.24-1.66-3.8-4.18-3.8h-5.48l-2.6 14zm4.54-7.38l.72-3.92h2c1.08 0 1.74.6 1.74 1.5 0 1.42-1.08 2.42-2.44 2.42h-2.02zM61.6894 56.9999h3.26l7.8-14h-3.48l-5.04 9.72h-.16l-1.42-9.72h-3.52l2.56 14zM71.99 56.9999h9.08l.5-2.72h-5.92l.56-2.98h4.84l.52-2.7h-4.86l.54-2.9h5.7l.5-2.7h-8.86l-2.6 14zM83.4205 56.9999h3.06l1.64-8.8h.12l3.9 8.8h3.32l2.6-14h-3.06l-1.64 8.8h-.12l-3.9-8.8h-3.32l-2.6 14zM101.485 56.9999h3.18l2.08-11.26h3.92l.52-2.74h-11l-.5198 2.74h3.9198l-2.1 11.26zM110.696 56.9999h3.16l2.6-14h-3.16l-2.6 14zM123.496 57.2599c5.1 0 8.92-3.92 8.92-8.66 0-3.44-2.44-5.86-6.22-5.86-5.12 0-8.92 3.92-8.92 8.68 0 3.42 2.36 5.84 6.22 5.84zm.58-3.04c-2.14 0-3.46-1.38-3.46-3.34 0-2.82 2.3-5.1 5.02-5.1 2.12 0 3.44 1.42 3.44 3.36 0 2.82-2.32 5.08-5 5.08zM133.361 56.9999h3.06l1.64-8.8h.12l3.9 8.8h3.32l2.6-14h-3.06l-1.64 8.8h-.12l-3.9-8.8h-3.32l-2.6 14zM148.366 56.9999h9.08l.5-2.72h-5.92l.56-2.98h4.84l.52-2.7h-4.86l.54-2.9h5.7l.5-2.7h-8.86l-2.6 14zM159.796 56.9999h3.06l1.64-8.8h.12l3.9 8.8h3.32l2.6-14h-3.06l-1.64 8.8h-.12l-3.9-8.8h-3.32l-2.6 14z" fill="#000"/></svg>