<svg width="283" height="126" viewBox="0 0 283 126" fill="none" xmlns="http://www.w3.org/2000/svg">
<path d="M0.12793 52.307L33.6186 52.307L35.4518 42.4429L13.3127 42.4429L13.4537 41.795C13.7357 39.851 14.9343 38.5549 17.6136 36.9709L28.3306 31.0669C34.1827 27.7549 40.4577 22.715 40.4577 13.7869C40.4577 6.65895 35.2403 0.970947 25.7924 0.970947C14.6523 0.970947 7.74265 8.74695 6.40302 17.3869L16.7675 17.3869C17.2611 14.291 19.9403 11.4109 23.8887 11.4109C27.3435 11.4109 29.1062 13.2829 29.1062 15.8029C29.1062 18.8269 26.7089 21.0589 24.0297 22.5709L13.8062 28.3309C6.33252 32.5069 2.9482 36.683 1.74958 43.307L0.12793 52.307Z" fill="black"/>
<path d="M53.1429 52.307H64.2124L73.3783 1.90695L63.1548 1.90695C62.2382 7.01895 58.9244 9.61095 49.406 9.61095L47.9254 18.035L59.418 18.035L53.1429 52.307Z" fill="black"/>
<path d="M78.3997 53.243C82.4186 53.243 85.6619 50.003 85.6619 46.115C85.6619 43.307 83.6877 41.2909 80.5854 41.2909C76.778 41.2909 73.3937 44.675 73.3937 48.419C73.3937 51.299 75.5089 53.243 78.3997 53.243Z" fill="black"/>
<path d="M95.6948 52.307H106.764L115.93 1.90695L105.707 1.90695C104.79 7.01895 101.476 9.61095 91.9579 9.61095L90.4773 18.035L101.97 18.035L95.6948 52.307Z" fill="black"/>
<path d="M134.253 53.243C144.194 53.243 152.373 47.267 154.276 36.4669L157.661 17.747C159.564 7.01895 151.809 0.970947 143.066 0.970947C133.195 0.970947 125.016 6.94695 123.112 17.747L119.728 36.4669C117.754 47.195 125.51 53.243 134.253 53.243ZM135.874 42.515C132.349 42.515 130.093 39.9229 130.868 35.7469L134.041 18.4669C134.817 14.291 137.707 11.6989 141.444 11.6989C144.97 11.6989 147.296 14.291 146.45 18.4669L143.348 35.7469C142.643 39.7789 139.823 42.515 135.874 42.515Z" fill="black"/>
<path d="M162.126 53.243C166.145 53.243 169.389 50.003 169.389 46.115C169.389 43.307 167.414 41.2909 164.312 41.2909C160.505 41.2909 157.12 44.675 157.12 48.419C157.12 51.299 159.236 53.243 162.126 53.243Z" fill="black"/>
<path d="M178.654 34.9549L217.503 34.9549L219.195 25.5949L180.346 25.5949L178.654 34.9549Z" fill="black"/>
<path d="M2.73668 124.307H15.2869L39.5412 83.5549L41.3038 73.835H8.44772L6.54404 83.987H27.0615L26.991 84.491L2.73668 124.307Z" fill="black"/>
<path d="M34.9527 125.243C38.9716 125.243 42.2149 122.003 42.2149 118.115C42.2149 115.307 40.2407 113.291 37.1384 113.291C33.3311 113.291 29.9467 116.675 29.9467 120.419C29.9467 123.299 32.0619 125.243 34.9527 125.243Z" fill="black"/>
<path d="M52.2478 124.307H63.3173L72.4832 73.907H62.2597C61.3431 79.019 58.0293 81.6109 48.5109 81.6109L47.0303 90.035H58.5229L52.2478 124.307Z" fill="black"/>
<path d="M84.9535 124.307H96.0231L105.189 73.907H94.9655C94.0489 79.019 90.7351 81.6109 81.2167 81.6109L79.736 90.035H91.2286L84.9535 124.307Z" fill="black"/>
<path d="M110.21 125.243C114.229 125.243 117.473 122.003 117.473 118.115C117.473 115.307 115.498 113.291 112.396 113.291C108.589 113.291 105.204 116.675 105.204 120.419C105.204 123.299 107.32 125.243 110.21 125.243Z" fill="black"/>
<path d="M124.341 124.307L157.832 124.307L159.665 114.443H137.526L137.667 113.795C137.949 111.851 139.147 110.555 141.826 108.971L152.543 103.067C158.396 99.755 164.671 94.715 164.671 85.7869C164.671 78.659 159.453 72.9709 150.005 72.9709C138.865 72.9709 131.956 80.747 130.616 89.387L140.98 89.387C141.474 86.291 144.153 83.4109 148.102 83.4109C151.556 83.4109 153.319 85.2829 153.319 87.8029C153.319 90.8269 150.922 93.059 148.243 94.571L138.019 100.331C130.545 104.507 127.161 108.683 125.962 115.307L124.341 124.307Z" fill="black"/>
<path d="M183.208 125.243C193.149 125.243 201.328 119.267 203.232 108.467L206.616 89.747C208.52 79.019 200.764 72.9709 192.021 72.9709C182.15 72.9709 173.971 78.947 172.068 89.747L168.683 108.467C166.709 119.195 174.465 125.243 183.208 125.243ZM184.829 114.515C181.304 114.515 179.048 111.923 179.824 107.747L182.996 90.4669C183.772 86.291 186.663 83.699 190.4 83.699C193.925 83.699 196.252 86.291 195.406 90.4669L192.303 107.747C191.598 111.779 188.778 114.515 184.829 114.515Z" fill="black"/>
<path d="M208.894 124.307L242.384 124.307L244.218 114.443H222.078L222.22 113.795C222.502 111.851 223.7 110.555 226.379 108.971L237.096 103.067C242.948 99.755 249.224 94.715 249.224 85.7869C249.224 78.659 244.006 72.9709 234.558 72.9709C223.418 72.9709 216.508 80.747 215.169 89.387L225.533 89.387C226.027 86.291 228.706 83.4109 232.655 83.4109C236.109 83.4109 237.872 85.2829 237.872 87.8029C237.872 90.8269 235.475 93.059 232.796 94.571L222.572 100.331C215.098 104.507 211.714 108.683 210.515 115.307L208.894 124.307Z" fill="black"/>
<path d="M261.909 124.307H272.978L282.144 73.907H271.921C271.004 79.019 267.69 81.6109 258.172 81.6109L256.691 90.035H268.184L261.909 124.307Z" fill="black"/>
</svg>
