<svg width="308" height="53" viewBox="0 0 308 53" fill="none" xmlns="http://www.w3.org/2000/svg">
<path d="M-3.06087e-08 16.704H5.346C7.938 16.704 9.99 14.706 9.99 12.348C9.99 11.142 9.288 10.422 8.64 10.116L8.658 10.008C9.882 9.36 10.602 8.118 10.602 6.804C10.602 5.238 9.468 4.104 7.272 4.104L2.34 4.104L-3.06087e-08 16.704ZM4.122 9.162L4.608 6.426H6.462C7.254 6.426 7.74 6.858 7.74 7.488C7.74 8.424 6.948 9.162 5.958 9.162L4.122 9.162ZM3.168 14.31L3.744 11.214L5.526 11.214C6.336 11.214 7.002 11.592 7.002 12.42C7.002 13.518 6.174 14.31 5.004 14.31H3.168Z" fill="black"/>
<path d="M17.2122 16.938C20.6322 16.938 22.5942 15.048 23.1702 11.898L24.6282 4.104H21.7662L20.3262 11.88C20.0562 13.356 19.1022 14.256 17.6262 14.256C16.0962 14.256 15.5202 13.356 15.7722 11.898L17.2302 4.104H14.3682L12.9282 11.916C12.3882 14.868 14.0802 16.938 17.2122 16.938Z" fill="black"/>
<path d="M25.7323 16.704H28.4863L29.9623 8.784H30.0703L33.5803 16.704H36.5683L38.9083 4.104H36.1543L34.6783 12.024H34.5703L31.0603 4.104L28.0723 4.104L25.7323 16.704Z" fill="black"/>
<path d="M40.1365 16.704H44.8885C49.4245 16.704 52.4125 13.464 52.4125 9.054C52.4125 6.12 50.4505 4.104 46.9585 4.104L42.4765 4.104L40.1365 16.704ZM43.4485 14.238L44.8525 6.57H46.3645C47.9845 6.57 49.4065 7.38 49.4065 9.396C49.4065 12.168 47.5165 14.238 44.9425 14.238H43.4485Z" fill="black"/>
<path d="M54.154 16.704L62.326 16.704L62.776 14.256L57.448 14.256L57.952 11.574L62.308 11.574L62.776 9.144L58.402 9.144L58.888 6.534L64.018 6.534L64.468 4.104L56.494 4.104L54.154 16.704Z" fill="black"/>
<path d="M69.5534 16.938C73.2074 16.938 75.2594 15.102 75.2594 12.168C75.2594 8.316 69.4454 9.54 69.4454 7.776C69.4454 6.966 70.2554 6.408 71.3714 6.408C72.5414 6.408 73.0994 7.02 72.9554 7.884L75.7814 7.884C76.1774 5.22 74.3954 3.87 71.7674 3.87C68.6534 3.87 66.5114 5.634 66.5114 8.37C66.5114 12.294 72.1994 11.052 72.1994 12.852C72.1994 13.788 71.3174 14.328 70.0214 14.328C68.5994 14.328 67.8974 13.644 68.0774 12.6H65.3594C64.8734 15.192 66.5114 16.938 69.5534 16.938Z" fill="black"/>
<path d="M79.6406 16.704H82.9886L86.5886 8.19H86.7506L87.1826 16.704H90.5486L96.1646 4.104H93.0326L89.6846 12.294H89.5406L89.1806 4.104H85.6706L82.2686 12.294H82.1246L81.8006 4.104L78.7046 4.104L79.6406 16.704Z" fill="black"/>
<path d="M96.3823 16.704L104.554 16.704L105.004 14.256L99.6763 14.256L100.18 11.574H104.536L105.004 9.144L100.63 9.144L101.116 6.534L106.246 6.534L106.696 4.104L98.7223 4.104L96.3823 16.704Z" fill="black"/>
<path d="M107.57 16.704H110.414L112.754 4.104H109.91L107.57 16.704Z" fill="black"/>
<path d="M116.73 16.704H119.592L121.464 6.57L124.992 6.57L125.46 4.104L115.56 4.104L115.092 6.57H118.62L116.73 16.704Z" fill="black"/>
<path d="M125.919 16.704H134.091L134.541 14.256H129.213L129.717 11.574H134.073L134.541 9.144H130.167L130.653 6.534L135.783 6.534L136.233 4.104L128.259 4.104L125.919 16.704Z" fill="black"/>
<path d="M136.333 19.062H138.331L140.275 14.346L137.557 14.346L136.333 19.062Z" fill="black"/>
<path d="M158.171 13.464L156.479 9.036L161.555 4.104H157.991L153.221 8.91H153.113L154.013 4.104L151.169 4.104L148.829 16.704H151.673L152.393 13.014L154.193 11.268L155.705 15.174C156.083 16.128 156.713 16.704 157.901 16.704H159.233L159.683 14.238H159.215C158.693 14.238 158.387 14.04 158.171 13.464Z" fill="black"/>
<path d="M167.656 2.664C168.538 2.664 169.258 1.944 169.258 1.062C169.258 0.45 168.844 0 168.16 0C167.314 0 166.558 0.756 166.558 1.602C166.558 2.214 167.008 2.664 167.656 2.664ZM171.238 2.664C172.084 2.664 172.822 1.908 172.822 1.08C172.822 0.467999 172.372 0 171.724 0C170.842 0 170.122 0.719999 170.122 1.62C170.122 2.232 170.536 2.664 171.238 2.664ZM167.026 16.938C170.446 16.938 172.408 15.048 172.984 11.898L174.442 4.104L171.58 4.104L170.14 11.88C169.87 13.356 168.916 14.256 167.44 14.256C165.91 14.256 165.334 13.356 165.586 11.898L167.044 4.104H164.182L162.742 11.916C162.202 14.868 163.894 16.938 167.026 16.938Z" fill="black"/>
<path d="M175.546 16.704H178.3L179.776 8.784H179.884L183.394 16.704H186.382L188.722 4.104H185.968L184.492 12.024H184.384L180.874 4.104L177.886 4.104L175.546 16.704Z" fill="black"/>
<path d="M194.162 16.938C197.816 16.938 199.868 15.102 199.868 12.168C199.868 8.316 194.054 9.54 194.054 7.776C194.054 6.966 194.864 6.408 195.98 6.408C197.15 6.408 197.708 7.02 197.564 7.884H200.39C200.786 5.22 199.004 3.87 196.376 3.87C193.262 3.87 191.12 5.634 191.12 8.37C191.12 12.294 196.808 11.052 196.808 12.852C196.808 13.788 195.926 14.328 194.63 14.328C193.208 14.328 192.506 13.644 192.686 12.6H189.968C189.482 15.192 191.12 16.938 194.162 16.938Z" fill="black"/>
<path d="M204.735 16.704H207.597L209.469 6.57L212.997 6.57L213.465 4.104L203.565 4.104L203.097 6.57H206.625L204.735 16.704Z" fill="black"/>
<path d="M213.924 16.704H222.096L222.546 14.256H217.218L217.722 11.574H222.078L222.546 9.144H218.172L218.658 6.534L223.788 6.534L224.238 4.104L216.264 4.104L213.924 16.704Z" fill="black"/>
<path d="M225.112 16.704H227.956L228.73 12.492H230.476L231.304 15.174C231.592 16.164 232.24 16.704 233.482 16.704H234.94L235.39 14.238H234.76C234.238 14.238 233.95 14.076 233.716 13.5L233.158 11.934C234.94 11.124 236.146 9.45 236.146 7.524C236.146 5.508 234.652 4.104 232.384 4.104L227.452 4.104L225.112 16.704ZM229.198 10.062L229.846 6.534H231.646C232.618 6.534 233.212 7.074 233.212 7.884C233.212 9.162 232.24 10.062 231.016 10.062H229.198Z" fill="black"/>
<path d="M237.846 16.704H245.622L246.108 14.166H241.176L243.03 4.104L240.186 4.104L237.846 16.704Z" fill="black"/>
<path d="M248.594 16.704H251.438L253.778 4.104L250.934 4.104L248.594 16.704Z" fill="black"/>
<path d="M259.212 16.938C262.866 16.938 264.918 15.102 264.918 12.168C264.918 8.316 259.104 9.54 259.104 7.776C259.104 6.966 259.914 6.408 261.03 6.408C262.2 6.408 262.758 7.02 262.614 7.884H265.44C265.836 5.22 264.054 3.87 261.426 3.87C258.312 3.87 256.17 5.634 256.17 8.37C256.17 12.294 261.858 11.052 261.858 12.852C261.858 13.788 260.976 14.328 259.68 14.328C258.258 14.328 257.556 13.644 257.736 12.6H255.018C254.532 15.192 256.17 16.938 259.212 16.938Z" fill="black"/>
<path d="M273.097 16.938C276.895 16.938 279.505 14.85 280.387 12.078H277.273C276.661 13.284 275.293 14.202 273.601 14.202C271.711 14.202 270.559 12.996 270.559 11.232C270.559 8.712 272.575 6.606 275.005 6.606C276.625 6.606 277.669 7.542 277.777 8.784H280.873C280.855 6.012 278.929 3.87 275.509 3.87C270.847 3.87 267.553 7.452 267.553 11.718C267.553 14.76 269.659 16.938 273.097 16.938Z" fill="black"/>
<path d="M282.613 16.704H285.457L286.375 11.718H291.415L290.479 16.704H293.341L295.681 4.104L292.819 4.104L291.919 8.982H286.879L287.797 4.104H284.953L282.613 16.704Z" fill="black"/>
<path d="M296.895 16.704L305.067 16.704L305.517 14.256L300.189 14.256L300.693 11.574L305.049 11.574L305.517 9.144L301.143 9.144L301.629 6.534L306.759 6.534L307.209 4.104L299.235 4.104L296.895 16.704Z" fill="black"/>
<path d="M5.058 34.938C8.478 34.938 10.44 33.048 11.016 29.898L12.474 22.104L9.612 22.104L8.172 29.88C7.902 31.356 6.948 32.256 5.472 32.256C3.942 32.256 3.366 31.356 3.618 29.898L5.076 22.104H2.214L0.774 29.916C0.234 32.868 1.926 34.938 5.058 34.938Z" fill="black"/>
<path d="M13.578 34.704H16.332L17.808 26.784H17.916L21.426 34.704L24.414 34.704L26.754 22.104H24L22.524 30.024H22.416L18.906 22.104H15.918L13.578 34.704Z" fill="black"/>
<path d="M27.9823 34.704H32.7343C37.2703 34.704 40.2583 31.464 40.2583 27.054C40.2583 24.12 38.2963 22.104 34.8043 22.104L30.3223 22.104L27.9823 34.704ZM31.2943 32.238L32.6983 24.57L34.2103 24.57C35.8303 24.57 37.2523 25.38 37.2523 27.396C37.2523 30.168 35.3623 32.238 32.7883 32.238H31.2943Z" fill="black"/>
<path d="M47.2524 34.704H56.9544L57.4044 32.256H51.3744L51.4104 32.112L58.7904 24.57L59.2584 22.104L49.8084 22.104L49.3584 24.534H55.1184L55.0824 24.678L47.7024 32.22L47.2524 34.704Z" fill="black"/>
<path d="M60.0504 34.704H62.8944L65.2344 22.104H62.3904L60.0504 34.704Z" fill="black"/>
<path d="M70.0926 34.704H73.0266L80.0466 22.104L76.9146 22.104L72.3786 30.852H72.2346L70.9566 22.104H67.7886L70.0926 34.704Z" fill="black"/>
<path d="M80.2631 34.704H83.1071L85.4471 22.104H82.6031L80.2631 34.704Z" fill="black"/>
<path d="M86.6693 34.704H94.4453L94.9313 32.166H89.9993L91.8533 22.104H89.0093L86.6693 34.704Z" fill="black"/>
<path d="M102.834 34.938C107.064 34.938 110.178 32.31 110.574 27.828H103.986L103.554 30.168H106.974C106.542 31.32 105.066 32.274 103.284 32.274C101.358 32.274 100.242 31.032 100.242 29.268C100.242 26.694 102.24 24.606 104.706 24.606C106.254 24.606 107.226 25.416 107.46 26.496H110.592C110.466 23.886 108.522 21.87 105.21 21.87C100.548 21.87 97.2361 25.434 97.2361 29.736C97.2361 32.778 99.3961 34.938 102.834 34.938Z" fill="black"/>
<path d="M112.366 34.704H120.538L120.988 32.256H115.66L116.164 29.574H120.52L120.988 27.144H116.614L117.1 24.534L122.23 24.534L122.68 22.104L114.706 22.104L112.366 34.704Z" fill="black"/>
<path d="M127.766 34.938C131.42 34.938 133.472 33.102 133.472 30.168C133.472 26.316 127.658 27.54 127.658 25.776C127.658 24.966 128.468 24.408 129.584 24.408C130.754 24.408 131.312 25.02 131.168 25.884H133.994C134.39 23.22 132.608 21.87 129.98 21.87C126.866 21.87 124.724 23.634 124.724 26.37C124.724 30.294 130.412 29.052 130.412 30.852C130.412 31.788 129.53 32.328 128.234 32.328C126.812 32.328 126.11 31.644 126.29 30.6H123.572C123.086 33.192 124.724 34.938 127.766 34.938Z" fill="black"/>
<path d="M135.585 34.704H143.757L144.207 32.256H138.879L139.383 29.574L143.739 29.574L144.207 27.144L139.833 27.144L140.319 24.534L145.449 24.534L145.899 22.104L137.925 22.104L135.585 34.704Z" fill="black"/>
<path d="M146.772 34.704H154.548L155.034 32.166L150.102 32.166L151.956 22.104H149.112L146.772 34.704Z" fill="black"/>
<path d="M157.52 34.704H165.296L165.782 32.166H160.85L162.704 22.104H159.86L157.52 34.704Z" fill="black"/>
<path d="M172.48 34.938C176.134 34.938 178.186 33.102 178.186 30.168C178.186 26.316 172.372 27.54 172.372 25.776C172.372 24.966 173.182 24.408 174.298 24.408C175.468 24.408 176.026 25.02 175.882 25.884H178.708C179.104 23.22 177.322 21.87 174.694 21.87C171.58 21.87 169.438 23.634 169.438 26.37C169.438 30.294 175.126 29.052 175.126 30.852C175.126 31.788 174.244 32.328 172.948 32.328C171.526 32.328 170.824 31.644 171.004 30.6H168.286C167.8 33.192 169.438 34.938 172.48 34.938Z" fill="black"/>
<path d="M186.366 34.938C190.164 34.938 192.774 32.85 193.656 30.078H190.542C189.93 31.284 188.562 32.202 186.87 32.202C184.98 32.202 183.828 30.996 183.828 29.232C183.828 26.712 185.844 24.606 188.274 24.606C189.894 24.606 190.938 25.542 191.046 26.784H194.142C194.124 24.012 192.198 21.87 188.778 21.87C184.116 21.87 180.822 25.452 180.822 29.718C180.822 32.76 182.928 34.938 186.366 34.938Z" fill="black"/>
<path d="M195.881 34.704H198.725L199.643 29.718H204.683L203.747 34.704H206.609L208.949 22.104H206.087L205.187 26.982H200.147L201.065 22.104H198.221L195.881 34.704Z" fill="black"/>
<path d="M209.155 34.704H212.197L213.349 32.472H218.101L218.425 34.704H221.413L219.415 22.104H215.761L209.155 34.704ZM214.519 29.934L216.931 25.236H217.093L217.777 29.934H214.519Z" fill="black"/>
<path d="M223.969 34.704H226.813L227.713 29.862L232.321 29.862L232.771 27.432L228.163 27.432L228.703 24.534L233.833 24.534L234.283 22.104L226.309 22.104L223.969 34.704Z" fill="black"/>
<path d="M237.735 34.704H240.597L242.469 24.57H245.997L246.465 22.104H236.565L236.097 24.57H239.625L237.735 34.704Z" fill="black"/>
<path d="M246.924 34.704H254.7L255.186 32.166H250.254L252.108 22.104H249.264L246.924 34.704Z" fill="black"/>
<path d="M257.672 34.704H260.516L262.856 22.104H260.012L257.672 34.704Z" fill="black"/>
<path d="M270.039 34.938C273.837 34.938 276.447 32.85 277.329 30.078L274.215 30.078C273.603 31.284 272.235 32.202 270.543 32.202C268.653 32.202 267.501 30.996 267.501 29.232C267.501 26.712 269.517 24.606 271.947 24.606C273.567 24.606 274.611 25.542 274.719 26.784L277.815 26.784C277.797 24.012 275.871 21.87 272.451 21.87C267.789 21.87 264.495 25.452 264.495 29.718C264.495 32.76 266.601 34.938 270.039 34.938Z" fill="black"/>
<path d="M279.555 34.704H282.399L283.317 29.718H288.357L287.421 34.704H290.283L292.623 22.104H289.761L288.861 26.982H283.821L284.739 22.104H281.895L279.555 34.704Z" fill="black"/>
<path d="M293.836 34.704H302.008L302.458 32.256H297.13L297.634 29.574L301.99 29.574L302.458 27.144L298.084 27.144L298.57 24.534H303.7L304.15 22.104L296.176 22.104L293.836 34.704Z" fill="black"/>
<path d="M-9.65756e-08 52.704H2.844L5.184 40.104H2.34L-9.65756e-08 52.704Z" fill="black"/>
<path d="M6.40617 52.704H9.16017L10.6362 44.784H10.7442L14.2542 52.704H17.2422L19.5822 40.104H16.8282L15.3522 48.024H15.2442L11.7342 40.104H8.74617L6.40617 52.704Z" fill="black"/>
<path d="M23.5644 52.704H26.4264L28.2984 42.57H31.8264L32.2944 40.104H22.3944L21.9264 42.57L25.4544 42.57L23.5644 52.704Z" fill="black"/>
<path d="M32.7537 52.704H40.9257L41.3757 50.256H36.0477L36.5517 47.574H40.9077L41.3757 45.144H37.0017L37.4877 42.534H42.6177L43.0677 40.104H35.0937L32.7537 52.704Z" fill="black"/>
<path d="M43.9411 52.704H46.7851L47.5591 48.492H49.3051L50.1331 51.174C50.4211 52.164 51.0691 52.704 52.3111 52.704H53.7691L54.2191 50.238H53.5891C53.0671 50.238 52.7791 50.076 52.5451 49.5L51.9871 47.934C53.7691 47.124 54.9751 45.45 54.9751 43.524C54.9751 41.508 53.4811 40.104 51.2131 40.104H46.2811L43.9411 52.704ZM48.0271 46.062L48.6751 42.534H50.4751C51.4471 42.534 52.0411 43.074 52.0411 43.884C52.0411 45.162 51.0691 46.062 49.8451 46.062H48.0271Z" fill="black"/>
<path d="M59.6786 52.704H62.6126L69.6326 40.104H66.5006L61.9646 48.852H61.8206L60.5426 40.104H57.3746L59.6786 52.704Z" fill="black"/>
<path d="M69.8491 52.704H78.0211L78.4711 50.256H73.1432L73.6471 47.574H78.0032L78.4711 45.144H74.0971L74.5831 42.534H79.7131L80.1631 40.104H72.1891L69.8491 52.704Z" fill="black"/>
<path d="M81.0366 52.704H83.7906L85.2666 44.784H85.3746L88.8846 52.704H91.8726L94.2126 40.104H91.4586L89.9826 48.024H89.8746L86.3646 40.104H83.3766L81.0366 52.704Z" fill="black"/>
<path d="M98.1948 52.704H101.057L102.929 42.57H106.457L106.925 40.104H97.0248L96.5568 42.57H100.085L98.1948 52.704Z" fill="black"/>
<path d="M107.384 52.704H110.228L112.568 40.104L109.724 40.104L107.384 52.704Z" fill="black"/>
<path d="M119.805 52.938C124.395 52.938 127.833 49.41 127.833 45.144C127.833 42.048 125.637 39.87 122.235 39.87C117.627 39.87 114.207 43.398 114.207 47.682C114.207 50.76 116.331 52.938 119.805 52.938ZM120.327 50.202C118.401 50.202 117.213 48.96 117.213 47.196C117.213 44.658 119.283 42.606 121.731 42.606C123.639 42.606 124.827 43.884 124.827 45.63C124.827 48.168 122.739 50.202 120.327 50.202Z" fill="black"/>
<path d="M129.583 52.704H132.337L133.813 44.784H133.921L137.431 52.704H140.419L142.759 40.104H140.005L138.529 48.024H138.421L134.911 40.104H131.923L129.583 52.704Z" fill="black"/>
<path d="M143.987 52.704H152.159L152.609 50.256H147.281L147.785 47.574H152.141L152.609 45.144H148.235L148.721 42.534H153.851L154.301 40.104H146.327L143.987 52.704Z" fill="black"/>
<path d="M155.175 52.704H157.929L159.405 44.784H159.513L163.023 52.704H166.011L168.351 40.104H165.597L164.121 48.024H164.013L160.503 40.104H157.515L155.175 52.704Z" fill="black"/>
</svg>
