<svg width="53" height="292" viewBox="0 0 53 292" fill="none" xmlns="http://www.w3.org/2000/svg">
<path d="M17.3122 292L17.3122 286.459C17.3122 283.773 15.2415 281.646 12.7976 281.646C11.5477 281.646 10.8015 282.374 10.4843 283.045L10.3724 283.027C9.70081 281.758 8.41359 281.012 7.05174 281.012C5.42872 281.012 4.25343 282.187 4.25343 284.463L4.25343 289.575L17.3122 292ZM9.4956 287.728L6.65998 287.224L6.65998 285.303C6.65998 284.482 7.10771 283.978 7.76065 283.978C8.73073 283.978 9.4956 284.799 9.4956 285.825L9.4956 287.728ZM14.831 288.717L11.6223 288.12L11.6223 286.273C11.6223 285.433 12.0141 284.743 12.8722 284.743C14.0102 284.743 14.831 285.601 14.831 286.814L14.831 288.717Z" fill="black"/>
<path d="M17.5547 275.094C17.5547 271.549 15.5959 269.516 12.3312 268.919L4.25343 267.408L4.25343 270.374L12.3126 271.866C13.8423 272.146 14.7751 273.135 14.7751 274.665C14.7751 276.25 13.8423 276.847 12.3312 276.586L4.25343 275.075L4.25343 278.041L12.3499 279.534C15.4094 280.093 17.5547 278.34 17.5547 275.094Z" fill="black"/>
<path d="M17.3122 267.196L17.3122 264.342L9.10384 262.812L9.10384 262.7L17.3122 259.063L17.3122 255.966L4.25343 253.541L4.25343 256.395L12.4618 257.925L12.4618 258.037L4.25343 261.674L4.25343 264.771L17.3122 267.196Z" fill="black"/>
<path d="M17.3122 253.2L17.3122 248.275C17.3122 243.574 13.9542 240.477 9.38367 240.477C6.34284 240.477 4.25343 242.511 4.25343 246.13L4.25343 250.775L17.3122 253.2ZM14.7564 249.768L6.80922 248.313L6.80922 246.746C6.80922 245.067 7.64871 243.593 9.73812 243.593C12.6111 243.593 14.7564 245.552 14.7564 248.219L14.7564 249.768Z" fill="black"/>
<path d="M17.3122 239.605L17.3122 231.136L14.7751 230.669L14.7751 236.191L11.9954 235.669L11.9954 231.154L9.47694 230.669L9.47694 235.203L6.77191 234.699L6.77191 229.382L4.25343 228.916L4.25343 237.18L17.3122 239.605Z" fill="black"/>
<path d="M17.5547 224.578C17.5547 220.791 15.6519 218.664 12.611 218.664C8.61879 218.664 9.88736 224.69 8.05913 224.69C7.21964 224.69 6.64132 223.85 6.64132 222.694C6.64132 221.481 7.2756 220.903 8.17106 221.052L8.17106 218.123C5.41006 217.713 4.01091 219.56 4.01091 222.283C4.01091 225.511 5.83914 227.731 8.67476 227.731C12.7416 227.731 11.4544 221.836 13.32 221.836C14.29 221.836 14.8497 222.75 14.8497 224.093C14.8497 225.567 14.1408 226.294 13.0588 226.108L13.0588 228.925C15.7452 229.428 17.5547 227.731 17.5547 224.578Z" fill="black"/>
<path d="M17.3122 215.056L17.3122 211.586L8.48821 207.855L8.48821 207.687L17.3122 207.24L17.3122 203.751L4.25343 197.931L4.25343 201.177L12.7416 204.647L12.7416 204.796L4.25343 205.169L4.25343 208.807L12.7416 212.333L12.7416 212.482L4.25343 212.818L4.25343 216.026L17.3122 215.056Z" fill="black"/>
<path d="M17.3122 198.638L17.3122 190.168L14.7751 189.702L14.7751 195.224L11.9954 194.701L11.9954 190.187L9.47694 189.702L9.47694 194.235L6.77191 193.731L6.77191 188.415L4.25343 187.948L4.25343 196.213L17.3122 198.638Z" fill="black"/>
<path d="M17.3122 187.976L17.3122 185.028L4.25343 182.603L4.25343 185.551L17.3122 187.976Z" fill="black"/>
<path d="M17.3122 179.415L17.3122 176.449L6.80922 174.508L6.80922 170.852L4.25343 170.367L4.25343 180.627L6.80922 181.112L6.80922 177.456L17.3122 179.415Z" fill="black"/>
<path d="M17.3122 170.824L17.3122 162.354L14.7751 161.888L14.7751 167.41L11.9954 166.887L11.9954 162.373L9.47694 161.888L9.47694 166.421L6.77191 165.917L6.77191 160.601L4.25343 160.134L4.25343 168.398L17.3122 170.824Z" fill="black"/>
<path d="M13.9542 145.196L9.36501 146.949L4.25342 141.689L4.25342 145.382L9.23442 150.326L9.23442 150.438L4.25343 149.505L4.25343 152.453L17.3122 154.878L17.3122 151.93L13.4878 151.184L11.6783 149.319L15.7265 147.752C16.7152 147.36 17.3122 146.707 17.3122 145.476L17.3122 144.095L14.7564 143.629L14.7564 144.114C14.7564 144.655 14.5512 144.972 13.9542 145.196Z" fill="black"/>
<path d="M2.76099 136.299C2.76099 135.384 2.01478 134.638 1.10066 134.638C0.466378 134.638 -6.64119e-06 135.067 -6.6102e-06 135.776C-6.57188e-06 136.653 0.78352 137.437 1.66032 137.437C2.29461 137.437 2.76099 136.97 2.76099 136.299ZM2.76099 132.586C2.76099 131.709 1.97747 130.944 1.11932 130.944C0.485033 130.944 -6.80102e-06 131.411 -6.77166e-06 132.082C-6.7317e-06 132.997 0.746208 133.743 1.67898 133.743C2.31326 133.743 2.76099 133.314 2.76099 132.586ZM17.5547 136.952C17.5547 133.407 15.5959 131.374 12.3312 130.777L4.25342 129.265L4.25342 132.232L12.3126 133.724C13.8423 134.004 14.7751 134.993 14.7751 136.522C14.7751 138.108 13.8423 138.705 12.3312 138.444L4.25342 136.933L4.25342 139.899L12.3499 141.391C15.4094 141.951 17.5547 140.198 17.5547 136.952Z" fill="black"/>
<path d="M17.3122 129.054L17.3122 126.2L9.10383 124.67L9.10383 124.558L17.3122 120.92L17.3122 117.823L4.25342 115.398L4.25342 118.253L12.4618 119.782L12.4618 119.894L4.25342 123.532L4.25342 126.629L17.3122 129.054Z" fill="black"/>
<path d="M17.5547 110.693C17.5547 106.906 15.6519 104.779 12.611 104.779C8.61879 104.779 9.88736 110.805 8.05913 110.805C7.21963 110.805 6.64132 109.965 6.64132 108.809C6.64132 107.596 7.2756 107.018 8.17106 107.167L8.17106 104.238C5.41006 103.828 4.0109 105.674 4.0109 108.398C4.0109 111.625 5.83913 113.845 8.67475 113.845C12.7416 113.845 11.4544 107.95 13.3199 107.95C14.29 107.95 14.8497 108.864 14.8497 110.208C14.8497 111.681 14.1408 112.409 13.0588 112.222L13.0588 115.039C15.7452 115.543 17.5547 113.845 17.5547 110.693Z" fill="black"/>
<path d="M17.3122 100.667L17.3122 97.7011L6.80921 95.761L6.80921 92.1045L4.25342 91.6195L4.25342 101.88L6.80921 102.365L6.80921 98.7085L17.3122 100.667Z" fill="black"/>
<path d="M17.3122 92.0762L17.3122 84.0171L14.6818 83.5134L14.6818 88.625L4.25342 86.7035L4.25342 89.651L17.3122 92.0762Z" fill="black"/>
<path d="M17.3122 81.8697L17.3122 73.4001L14.7751 72.9337L14.7751 78.4557L11.9954 77.9334L11.9954 73.4188L9.47693 72.9337L9.47693 77.467L6.7719 76.9633L6.7719 71.6465L4.25342 71.1801L4.25342 79.4445L17.3122 81.8697Z" fill="black"/>
<path d="M17.3122 71.2077L17.3122 68.2601L12.9468 67.4579L12.9468 65.6484L15.7265 64.7902C16.7525 64.4917 17.3122 63.8201 17.3122 62.5329L17.3122 61.0218L14.7564 60.5554L14.7564 61.2084C14.7564 61.7494 14.5885 62.0479 13.9915 62.2904L12.3685 62.8687C11.529 61.0218 9.79408 59.7719 7.79795 59.7719C5.70854 59.7719 4.25342 61.3203 4.25342 63.6709L4.25342 68.7825L17.3122 71.2077ZM10.4284 66.9729L6.7719 66.3013L6.7719 64.4358C6.7719 63.4284 7.33156 62.8127 8.17106 62.8127C9.49559 62.8127 10.4284 63.8201 10.4284 65.0887L10.4284 66.9729Z" fill="black"/>
<path d="M17.3122 58.9425L17.3122 55.9949L4.25342 53.5697L4.25342 56.5173L17.3122 58.9425Z" fill="black"/>
<path d="M17.5547 48.8705C17.5547 45.0834 15.6519 42.9567 12.611 42.9567C8.61879 42.9567 9.88735 48.9824 8.05912 48.9824C7.21963 48.9824 6.64131 48.1429 6.64131 46.9863C6.64131 45.7737 7.2756 45.1953 8.17106 45.3446L8.17106 42.4157C5.41006 42.0053 4.0109 43.8522 4.0109 46.5759C4.0109 49.8032 5.83913 52.0232 8.67475 52.0232C12.7416 52.0232 11.4544 46.1281 13.3199 46.1281C14.29 46.1281 14.8497 47.0422 14.8497 48.3854C14.8497 49.8592 14.1408 50.5867 13.0588 50.4002L13.0588 53.2172C15.7451 53.7209 17.5547 52.0232 17.5547 48.8705Z" fill="black"/>
<path d="M17.5547 35.4125C17.5547 31.4762 15.3907 28.7711 12.5178 27.857L12.5178 31.0844C13.7677 31.7187 14.7191 33.1365 14.7191 34.8901C14.7191 36.849 13.4692 38.0429 11.641 38.0429C9.0292 38.0429 6.84652 35.9535 6.84652 33.435C6.84652 31.756 7.8166 30.674 9.10383 30.562L9.10383 27.3533C6.23089 27.372 4.0109 29.3681 4.0109 32.9127C4.0109 37.7444 7.72333 41.1583 12.1447 41.1583C15.2974 41.1583 17.5547 38.9757 17.5547 35.4125Z" fill="black"/>
<path d="M17.3122 26.4828L17.3122 23.5352L12.1447 22.5838L12.1447 17.3603L17.3122 18.3304L17.3122 15.3642L4.25342 12.939L4.25342 15.9052L9.30903 16.838L9.30903 22.0615L4.25342 21.11L4.25342 24.0576L17.3122 26.4828Z" fill="black"/>
<path d="M17.3122 12.6144L17.3122 4.14487L14.7751 3.67847L14.7751 9.20047L11.9954 8.6781L11.9954 4.16351L9.47693 3.67847L9.47693 8.21173L6.7719 7.70801L6.7719 2.39124L4.25342 1.92487L4.25342 10.1892L17.3122 12.6144Z" fill="black"/>
<path d="M35.2774 286.758C35.2774 283.213 33.3185 281.18 30.0539 280.583L21.9761 279.072L21.9761 282.038L30.0352 283.53C31.5649 283.81 32.4977 284.799 32.4977 286.329C32.4977 287.914 31.5649 288.511 30.0539 288.25L21.9761 286.739L21.9761 289.705L30.0725 291.198C33.132 291.757 35.2774 290.004 35.2774 286.758Z" fill="black"/>
<path d="M35.0348 278.86L35.0348 276.006L26.8265 274.476L26.8265 274.364L35.0348 270.727L35.0348 267.63L21.9761 265.205L21.9761 268.059L30.1844 269.589L30.1844 269.701L21.9761 273.338L21.9761 276.435L35.0348 278.86Z" fill="black"/>
<path d="M35.0348 264.864L35.0348 259.939C35.0348 255.238 31.6769 252.141 27.1063 252.141C24.0655 252.141 21.9761 254.175 21.9761 257.794L21.9761 262.439L35.0348 264.864ZM32.4791 261.432L24.5319 259.977L24.5319 258.41C24.5319 256.731 25.3713 255.257 27.4608 255.257C30.3337 255.257 32.4791 257.216 32.4791 259.883L32.4791 261.432Z" fill="black"/>
<path d="M35.0348 246.758L35.0348 236.703L32.4977 236.237L32.4977 242.486L32.3485 242.449L24.5319 234.8L21.9761 234.315L21.9761 244.109L24.4945 244.575L24.4945 238.606L24.6438 238.643L32.4604 246.292L35.0348 246.758Z" fill="black"/>
<path d="M35.0348 234.427L35.0348 231.479L21.9761 229.054L21.9761 232.002L35.0348 234.427Z" fill="black"/>
<path d="M35.0348 224.952L35.0348 221.911L21.9761 214.635L21.9761 217.881L31.0426 222.583L31.0426 222.732L21.9761 224.056L21.9761 227.34L35.0348 224.952Z" fill="black"/>
<path d="M35.0348 215.344L35.0348 212.396L21.9761 209.971L21.9761 212.919L35.0348 215.344Z" fill="black"/>
<path d="M35.0348 209.637L35.0348 201.578L32.4044 201.074L32.4044 206.186L21.9761 204.264L21.9761 207.212L35.0348 209.637Z" fill="black"/>
<path d="M35.2774 193.816C35.2774 189.432 32.5537 186.205 27.9085 185.795L27.9085 192.623L30.3337 193.07L30.3337 189.526C31.5276 189.973 32.5164 191.503 32.5164 193.35C32.5164 195.346 31.2291 196.503 29.4009 196.503C26.7332 196.503 24.5692 194.432 24.5692 191.876C24.5692 190.272 25.4087 189.265 26.528 189.022L26.528 185.776C23.8229 185.907 21.7335 187.921 21.7335 191.354C21.7335 196.186 25.4273 199.618 29.886 199.618C33.0387 199.618 35.2774 197.38 35.2774 193.816Z" fill="black"/>
<path d="M35.0348 184.87L35.0348 176.4L32.4977 175.934L32.4977 181.456L29.7181 180.934L29.7181 176.419L27.1996 175.934L27.1996 180.467L24.4945 179.964L24.4945 174.647L21.9761 174.18L21.9761 182.445L35.0348 184.87Z" fill="black"/>
<path d="M35.2774 169.843C35.2774 166.055 33.3745 163.929 30.3337 163.929C26.3414 163.929 27.61 169.954 25.7818 169.954C24.9423 169.954 24.364 169.115 24.364 167.958C24.364 166.746 24.9982 166.167 25.8937 166.317L25.8937 163.388C23.1327 162.977 21.7335 164.824 21.7335 167.548C21.7335 170.775 23.5618 172.995 26.3974 172.995C30.4643 172.995 29.177 167.1 31.0426 167.1C32.0127 167.1 32.5723 168.014 32.5723 169.357C32.5723 170.831 31.8634 171.559 30.7814 171.372L30.7814 174.189C33.4678 174.693 35.2774 172.995 35.2774 169.843Z" fill="black"/>
<path d="M35.0348 162.671L35.0348 154.202L32.4977 153.735L32.4977 159.257L29.7181 158.735L29.7181 154.221L27.1996 153.735L27.1996 158.269L24.4945 157.765L24.4945 152.448L21.9761 151.982L21.9761 160.246L35.0348 162.671Z" fill="black"/>
<path d="M35.0348 152.009L35.0348 143.95L32.4044 143.447L32.4044 148.558L21.9761 146.637L21.9761 149.584L35.0348 152.009Z" fill="black"/>
<path d="M35.0348 141.803L35.0348 133.744L32.4044 133.24L32.4044 138.352L21.9761 136.43L21.9761 139.378L35.0348 141.803Z" fill="black"/>
<path d="M35.2774 127.231C35.2774 123.444 33.3745 121.317 30.3337 121.317C26.3414 121.317 27.61 127.343 25.7818 127.343C24.9423 127.343 24.3639 126.503 24.3639 125.347C24.3639 124.134 24.9982 123.556 25.8937 123.705L25.8937 120.776C23.1327 120.366 21.7335 122.213 21.7335 124.936C21.7335 128.164 23.5618 130.384 26.3974 130.384C30.4643 130.384 29.177 124.489 31.0426 124.489C32.0127 124.489 32.5723 125.403 32.5723 126.746C32.5723 128.22 31.8634 128.947 30.7814 128.761L30.7814 131.578C33.4678 132.081 35.2774 130.384 35.2774 127.231Z" fill="black"/>
<path d="M35.2774 113.773C35.2774 109.837 33.1133 107.132 30.2404 106.218L30.2404 109.445C31.4903 110.079 32.4417 111.497 32.4417 113.251C32.4417 115.209 31.1918 116.403 29.3636 116.403C26.7518 116.403 24.5692 114.314 24.5692 111.796C24.5692 110.117 25.5392 109.035 26.8265 108.923L26.8265 105.714C23.9535 105.733 21.7335 107.729 21.7335 111.273C21.7335 116.105 25.446 119.519 29.8673 119.519C33.0201 119.519 35.2774 117.336 35.2774 113.773Z" fill="black"/>
<path d="M35.0348 104.843L35.0348 101.896L29.8673 100.944L29.8673 95.7208L35.0348 96.6909L35.0348 93.7247L21.9761 91.2995L21.9761 94.2657L27.0317 95.1985L27.0317 100.422L21.9761 99.4706L21.9761 102.418L35.0348 104.843Z" fill="black"/>
<path d="M35.0348 92.0196L35.0348 88.8669L32.7216 87.6729L32.7216 82.7479L35.0348 82.4121L35.0348 79.3153L21.9761 81.386L21.9761 85.1731L35.0348 92.0196ZM30.0912 86.4603L25.2221 83.9605L25.2221 83.7926L30.0912 83.0837L30.0912 86.4603Z" fill="black"/>
<path d="M35.0348 77.5984L35.0348 74.6508L30.0165 73.7181L30.0165 68.9423L27.4981 68.4759L27.4981 73.2517L24.4945 72.692L24.4945 67.3752L21.9761 66.9089L21.9761 75.1732L35.0348 77.5984Z" fill="black"/>
<path d="M35.0348 64.2643L35.0348 61.2981L24.5318 59.3579L24.5318 55.7015L21.9761 55.2164L21.9761 65.4769L24.5318 65.962L24.5318 62.3055L35.0348 64.2643Z" fill="black"/>
<path d="M35.0348 55.6732L35.0348 47.6141L32.4044 47.1104L32.4044 52.222L21.9761 50.3004L21.9761 53.248L35.0348 55.6732Z" fill="black"/>
<path d="M35.0348 45.4667L35.0348 42.5191L21.9761 40.0939L21.9761 43.0414L35.0348 45.4667Z" fill="black"/>
<path d="M35.2774 33.5824C35.2774 29.6461 33.1133 26.9411 30.2404 26.027L30.2404 29.2544C31.4903 29.8886 32.4417 31.3065 32.4417 33.0601C32.4417 35.0189 31.1918 36.2129 29.3636 36.2129C26.7518 36.2129 24.5692 34.1235 24.5692 31.605C24.5692 29.926 25.5392 28.844 26.8265 28.732L26.8265 25.5233C23.9535 25.5419 21.7335 27.5381 21.7335 31.0826C21.7335 35.9144 25.446 39.3283 29.8673 39.3283C33.0201 39.3283 35.2774 37.1456 35.2774 33.5824Z" fill="black"/>
<path d="M35.0348 24.6528L35.0348 21.7052L29.8673 20.7538L29.8673 15.5303L35.0348 16.5004L35.0348 13.5342L21.9761 11.1089L21.9761 14.0752L27.0317 15.0079L27.0317 20.2314L21.9761 19.28L21.9761 22.2276L35.0348 24.6528Z" fill="black"/>
<path d="M35.0348 10.7844L35.0348 2.31482L32.4977 1.84845L32.4977 7.37042L29.718 6.84808L29.718 2.33346L27.1996 1.84845L27.1996 6.38168L24.4945 5.87799L24.4945 0.561217L21.9761 0.0948172L21.9761 8.35916L35.0348 10.7844Z" fill="black"/>
<path d="M52.7575 292L52.7575 289.052L39.6987 286.627L39.6987 289.575L52.7575 292Z" fill="black"/>
<path d="M52.7575 286.293L52.7575 283.439L44.5491 281.909L44.5491 281.797L52.7575 278.16L52.7575 275.063L39.6987 272.638L39.6987 275.492L47.9071 277.022L47.9071 277.134L39.6987 280.771L39.6987 283.868L52.7575 286.293Z" fill="black"/>
<path d="M52.7575 269.443L52.7575 266.477L42.2545 264.537L42.2545 260.88L39.6987 260.395L39.6987 270.656L42.2545 271.141L42.2545 267.484L52.7575 269.443Z" fill="black"/>
<path d="M52.7575 260.852L52.7575 252.382L50.2203 251.916L50.2203 257.438L47.4407 256.916L47.4407 252.401L44.9222 251.916L44.9222 256.449L42.2172 255.946L42.2172 250.629L39.6987 250.162L39.6987 258.427L52.7575 260.852Z" fill="black"/>
<path d="M52.7575 250.19L52.7575 247.242L48.3921 246.44L48.3921 244.631L51.1718 243.773C52.1978 243.474 52.7575 242.802 52.7575 241.515L52.7575 240.004L50.2017 239.538L50.2017 240.191C50.2017 240.732 50.0338 241.03 49.4368 241.273L47.8138 241.851C46.9743 240.004 45.2394 238.754 43.2432 238.754C41.1538 238.754 39.6987 240.303 39.6987 242.653L39.6987 247.765L52.7575 250.19ZM45.8736 245.955L42.2172 245.284L42.2172 243.418C42.2172 242.411 42.7768 241.795 43.6163 241.795C44.9409 241.795 45.8736 242.802 45.8736 244.071L45.8736 245.955Z" fill="black"/>
<path d="M52.7575 234.812L52.7575 231.771L39.6987 224.496L39.6987 227.742L48.7652 232.443L48.7652 232.592L39.6987 233.917L39.6987 237.2L52.7575 234.812Z" fill="black"/>
<path d="M52.7575 225.204L52.7575 216.735L50.2203 216.268L50.2203 221.79L47.4407 221.268L47.4407 216.753L44.9222 216.268L44.9222 220.802L42.2172 220.298L42.2172 214.981L39.6987 214.515L39.6987 222.779L52.7575 225.204Z" fill="black"/>
<path d="M52.7575 214.542L52.7575 211.688L44.5491 210.158L44.5491 210.046L52.7575 206.408L52.7575 203.312L39.6987 200.886L39.6987 203.741L47.9071 205.27L47.9071 205.382L39.6987 209.02L39.6987 212.117L52.7575 214.542Z" fill="black"/>
<path d="M52.7575 197.692L52.7575 194.726L42.2545 192.786L42.2545 189.129L39.6987 188.644L39.6987 198.905L42.2545 199.39L42.2545 195.733L52.7575 197.692Z" fill="black"/>
<path d="M52.7575 189.101L52.7575 186.153L39.6987 183.728L39.6987 186.676L52.7575 189.101Z" fill="black"/>
<path d="M53 177.161C53 172.404 49.3435 168.84 44.9222 168.84C41.7135 168.84 39.4562 171.116 39.4562 174.642C39.4562 179.418 43.1126 182.963 47.5526 182.963C50.7427 182.963 53 180.761 53 177.161ZM50.1644 176.62C50.1644 178.616 48.8772 179.847 47.0489 179.847C44.4185 179.847 42.2918 177.702 42.2918 175.165C42.2918 173.187 43.6163 171.956 45.4259 171.956C48.0563 171.956 50.1644 174.12 50.1644 176.62Z" fill="black"/>
<path d="M52.7575 167.959L52.7575 165.105L44.5491 163.575L44.5491 163.463L52.7575 159.825L52.7575 156.729L39.6987 154.303L39.6987 157.158L47.9071 158.687L47.9071 158.799L39.6987 162.437L39.6987 165.534L52.7575 167.959Z" fill="black"/>
<path d="M52.7575 153.963L52.7575 145.494L50.2203 145.027L50.2203 150.549L47.4407 150.027L47.4407 145.512L44.9222 145.027L44.9222 149.56L42.2172 149.057L42.2172 143.74L39.6987 143.274L39.6987 151.538L52.7575 153.963Z" fill="black"/>
<path d="M52.7575 143.301L52.7575 140.447L44.5491 138.917L44.5491 138.805L52.7575 135.167L52.7575 132.071L39.6987 129.645L39.6987 132.5L47.9071 134.029L47.9071 134.141L39.6987 137.779L39.6987 140.876L52.7575 143.301Z" fill="black"/>
</svg>
