<svg width="53" height="308" fill="none" xmlns="http://www.w3.org/2000/svg"><path d="M16.766 308v-5.346c0-2.592-1.998-4.644-4.356-4.644-1.206 0-1.926.702-2.232 1.35l-.108-.018a3.624 3.624 0 00-3.204-1.944c-1.566 0-2.7 1.134-2.7 3.33v4.932l12.6 2.34zm-7.542-4.122l-2.736-.486v-1.854c0-.792.432-1.278 1.062-1.278.936 0 1.674.792 1.674 1.782v1.836zm5.148.954l-3.096-.576v-1.782c0-.81.378-1.476 1.206-1.476 1.098 0 1.89.828 1.89 1.998v1.836zM17 290.788c0-3.42-1.89-5.382-5.04-5.958l-7.794-1.458v2.862l7.776 1.44c1.476.27 2.376 1.224 2.376 2.7 0 1.53-.9 2.106-2.358 1.854l-7.794-1.458v2.862l7.812 1.44c2.952.54 5.022-1.152 5.022-4.284zM16.766 282.268v-2.754l-7.92-1.476v-.108l7.92-3.51v-2.988l-12.6-2.34v2.754l7.92 1.476v.108l-7.92 3.51v2.988l12.6 2.34zM16.766 267.864v-4.752c0-4.536-3.24-7.524-7.65-7.524-2.934 0-4.95 1.962-4.95 5.454v4.482l12.6 2.34zm-2.466-3.312l-7.668-1.404v-1.512c0-1.62.81-3.042 2.826-3.042 2.772 0 4.842 1.89 4.842 4.464v1.494zM16.766 253.846v-8.172l-2.448-.45v5.328l-2.682-.504v-4.356l-2.43-.468v4.374l-2.61-.486v-5.13l-2.43-.45v7.974l12.6 2.34zM17 238.447c0-3.654-1.836-5.706-4.77-5.706-3.852 0-2.628 5.814-4.392 5.814-.81 0-1.368-.81-1.368-1.926 0-1.17.612-1.728 1.476-1.584v-2.826c-2.664-.396-4.014 1.386-4.014 4.014 0 3.114 1.764 5.256 4.5 5.256 3.924 0 2.682-5.688 4.482-5.688.936 0 1.476.882 1.476 2.178 0 1.422-.684 2.124-1.728 1.944v2.718c2.592.486 4.338-1.152 4.338-4.194zM16.766 228.359v-3.348l-8.514-3.6v-.162l8.514-.432v-3.366l-12.6-5.616v3.132l8.19 3.348v.144l-8.19.36v3.51l8.19 3.402v.144l-8.19.324v3.096l12.6-.936zM16.766 211.618v-8.172l-2.448-.45v5.328l-2.682-.504v-4.356l-2.43-.468v4.374l-2.61-.486v-5.13l-2.43-.45v7.974l12.6 2.34zM16.766 200.43v-2.844l-12.6-2.34v2.844l12.6 2.34zM16.766 191.27v-2.862l-10.134-1.872v-3.528l-2.466-.468v9.9l2.466.468v-3.528l10.134 1.89zM16.766 182.081v-8.172l-2.448-.45v5.328l-2.682-.504v-4.356l-2.43-.468v4.374l-2.61-.486v-5.13l-2.43-.45v7.974l12.6 2.34zM19.124 171.667v-1.998l-4.716-1.944v2.718l4.716 1.224zM13.526 149.829l-4.428 1.692-4.932-5.076v3.564l4.806 4.77v.108l-4.806-.9v2.844l12.6 2.34v-2.844l-3.69-.72-1.746-1.8 3.906-1.512c.954-.378 1.53-1.008 1.53-2.196v-1.332l-2.466-.45v.468c0 .522-.198.828-.774 1.044zM2.726 140.344c0-.882-.72-1.602-1.602-1.602-.612 0-1.062.414-1.062 1.098 0 .846.756 1.602 1.602 1.602.612 0 1.062-.45 1.062-1.098zm0-3.582c0-.846-.756-1.584-1.584-1.584-.612 0-1.08.45-1.08 1.098 0 .882.72 1.602 1.62 1.602.612 0 1.044-.414 1.044-1.116zM17 140.974c0-3.42-1.89-5.382-5.04-5.958l-7.794-1.458v2.862l7.776 1.44c1.476.27 2.376 1.224 2.376 2.7 0 1.53-.9 2.106-2.358 1.854l-7.794-1.458v2.862l7.812 1.44c2.952.54 5.022-1.152 5.022-4.284zM16.766 132.454V129.7l-7.92-1.476v-.108l7.92-3.51v-2.988l-12.6-2.34v2.754l7.92 1.476v.108l-7.92 3.51v2.988l12.6 2.34zM17 113.838c0-3.654-1.836-5.706-4.77-5.706-3.852 0-2.628 5.814-4.392 5.814-.81 0-1.368-.81-1.368-1.926 0-1.17.612-1.728 1.476-1.584v-2.826c-2.664-.396-4.014 1.386-4.014 4.014 0 3.114 1.764 5.256 4.5 5.256 3.924 0 2.682-5.688 4.482-5.688.936 0 1.476.882 1.476 2.178 0 1.422-.684 2.124-1.728 1.944v2.718c2.592.486 4.338-1.152 4.338-4.194zM16.766 103.265v-2.862L6.632 98.531v-3.528l-2.466-.468v9.9l2.466.468v-3.528l10.134 1.89zM16.766 94.076v-8.172l-2.448-.45v5.328l-2.682-.504v-4.356l-2.43-.468v4.374l-2.61-.486v-5.13l-2.43-.45v7.974l12.6 2.34zM16.766 82.888v-2.844l-4.212-.774v-1.746l2.682-.828c.99-.288 1.53-.936 1.53-2.178V73.06l-2.466-.45v.63c0 .522-.162.81-.738 1.044l-1.566.558c-.81-1.782-2.484-2.988-4.41-2.988-2.016 0-3.42 1.494-3.42 3.762v4.932l12.6 2.34zm-6.642-4.086l-3.528-.648v-1.8c0-.972.54-1.566 1.35-1.566 1.278 0 2.178.972 2.178 2.196v1.818zM16.766 70.154v-7.776l-2.538-.486v4.932L4.166 64.97v2.844l12.6 2.34zM16.766 59.406v-2.844l-12.6-2.34v2.844l12.6 2.34zM17 48.788c0-3.654-1.836-5.706-4.77-5.706-3.852 0-2.628 5.814-4.392 5.814-.81 0-1.368-.81-1.368-1.926 0-1.17.612-1.728 1.476-1.584V42.56c-2.664-.396-4.014 1.386-4.014 4.014 0 3.114 1.764 5.256 4.5 5.256 3.924 0 2.682-5.688 4.482-5.688.936 0 1.476.882 1.476 2.178 0 1.422-.684 2.124-1.728 1.944v2.718C15.254 53.468 17 51.83 17 48.788zM17 34.903c0-3.798-2.088-6.408-4.86-7.29v3.114c1.206.612 2.124 1.98 2.124 3.672 0 1.89-1.206 3.042-2.97 3.042-2.52 0-4.626-2.016-4.626-4.446 0-1.62.936-2.664 2.178-2.772v-3.096c-2.772.018-4.914 1.944-4.914 5.364 0 4.662 3.582 7.956 7.848 7.956 3.042 0 5.22-2.106 5.22-5.544zM16.766 25.387v-2.844l-4.986-.918v-5.04l4.986.936v-2.862l-12.6-2.34v2.862l4.878.9v5.04l-4.878-.918v2.844l12.6 2.34zM16.766 11.105V2.933l-2.448-.45v5.328l-2.682-.504V2.951l-2.43-.468v4.374l-2.61-.486v-5.13l-2.43-.45v7.974l12.6 2.34zM35 302.942c0-3.42-1.89-5.382-5.04-5.958l-7.794-1.458v2.862l7.776 1.44c1.476.27 2.376 1.224 2.376 2.7 0 1.53-.9 2.106-2.358 1.854l-7.794-1.458v2.862l7.812 1.44c2.952.54 5.022-1.152 5.022-4.284zM34.766 294.422v-2.754l-7.92-1.476v-.108l7.92-3.51v-2.988l-12.6-2.34V284l7.92 1.476v.108l-7.92 3.51v2.988l12.6 2.34zM34.766 280.018v-4.752c0-4.536-3.24-7.524-7.65-7.524-2.934 0-4.95 1.962-4.95 5.454v4.482l12.6 2.34zm-2.466-3.312l-7.668-1.404v-1.512c0-1.62.81-3.042 2.826-3.042 2.772 0 4.842 1.89 4.842 4.464v1.494zM34.766 260.748v-9.702l-2.448-.45v6.03l-.144-.036-7.542-7.38-2.466-.468v9.45l2.43.45v-5.76l.144.036 7.542 7.38 2.484.45zM34.766 247.95v-2.844l-12.6-2.34v2.844l12.6 2.34zM34.766 237.907v-2.934l-12.6-7.02v3.132l8.748 4.536v.144l-8.748 1.278v3.168l12.6-2.304zM34.766 227.737v-2.844l-12.6-2.34v2.844l12.6 2.34zM34.766 221.331v-7.776l-2.538-.486v4.932l-10.062-1.854v2.844l12.6 2.34zM35 205.166c0-4.23-2.628-7.344-7.11-7.74v6.588l2.34.432v-3.42c1.152.432 2.106 1.908 2.106 3.69 0 1.926-1.242 3.042-3.006 3.042-2.574 0-4.662-1.998-4.662-4.464 0-1.548.81-2.52 1.89-2.754v-3.132c-2.61.126-4.626 2.07-4.626 5.382 0 4.662 3.564 7.974 7.866 7.974 3.042 0 5.202-2.16 5.202-5.598zM34.766 195.634v-8.172l-2.448-.45v5.328l-2.682-.504v-4.356l-2.43-.468v4.374l-2.61-.486v-5.13l-2.43-.45v7.974l12.6 2.34zM35 180.234c0-3.654-1.836-5.706-4.77-5.706-3.852 0-2.628 5.814-4.392 5.814-.81 0-1.368-.81-1.368-1.926 0-1.17.612-1.728 1.476-1.584v-2.826c-2.664-.396-4.014 1.386-4.014 4.014 0 3.114 1.764 5.256 4.5 5.256 3.924 0 2.682-5.688 4.482-5.688.936 0 1.476.882 1.476 2.178 0 1.422-.684 2.124-1.728 1.944v2.718c2.592.486 4.338-1.152 4.338-4.194zM34.766 172.415v-8.172l-2.448-.45v5.328l-2.682-.504v-4.356l-2.43-.468v4.374l-2.61-.486v-5.13l-2.43-.45v7.974l12.6 2.34zM34.766 161.228v-7.776l-2.538-.486v4.932l-10.062-1.854v2.844l12.6 2.34zM34.766 150.48v-7.776l-2.538-.486v4.932l-10.062-1.854v2.844l12.6 2.34zM35 135.52c0-3.654-1.836-5.706-4.77-5.706-3.852 0-2.628 5.814-4.392 5.814-.81 0-1.368-.81-1.368-1.926 0-1.17.612-1.728 1.476-1.584v-2.826c-2.664-.396-4.014 1.386-4.014 4.014 0 3.114 1.764 5.256 4.5 5.256 3.924 0 2.682-5.688 4.482-5.688.936 0 1.476.882 1.476 2.178 0 1.422-.684 2.124-1.728 1.944v2.718c2.592.486 4.338-1.152 4.338-4.194zM35 121.634c0-3.798-2.088-6.408-4.86-7.29v3.114c1.206.612 2.124 1.98 2.124 3.672 0 1.89-1.206 3.042-2.97 3.042-2.52 0-4.626-2.016-4.626-4.446 0-1.62.936-2.664 2.178-2.772v-3.096c-2.772.018-4.914 1.944-4.914 5.364 0 4.662 3.582 7.956 7.848 7.956 3.042 0 5.22-2.106 5.22-5.544zM34.766 112.119v-2.844l-4.986-.918v-5.04l4.986.936v-2.862l-12.6-2.34v2.862l4.878.9v5.04l-4.878-.918v2.844l12.6 2.34zM34.766 98.845v-3.042l-2.232-1.152V89.9l2.232-.324v-2.988l-12.6 1.998v3.654l12.6 6.606zm-4.77-5.364l-4.698-2.412v-.162l4.698-.684v3.258zM34.766 84.03v-2.843l-4.842-.9v-4.608l-2.43-.45v4.608l-2.898-.54v-5.13l-2.43-.45v7.974l12.6 2.34zM34.766 70.265v-2.862l-10.134-1.872v-3.528l-2.466-.468v9.9l2.466.468v-3.528l10.134 1.89zM34.766 61.076V53.3l-2.538-.486v4.932l-10.062-1.854v2.844l12.6 2.34zM34.766 50.328v-2.844l-12.6-2.34v2.844l12.6 2.34zM35 37.961c0-3.798-2.088-6.408-4.86-7.29v3.114c1.206.612 2.124 1.98 2.124 3.672 0 1.89-1.206 3.042-2.97 3.042-2.52 0-4.626-2.016-4.626-4.446 0-1.62.936-2.664 2.178-2.772v-3.096c-2.772.018-4.914 1.944-4.914 5.364 0 4.662 3.582 7.956 7.848 7.956 3.042 0 5.22-2.106 5.22-5.544zM34.766 28.445v-2.844l-4.986-.918v-5.04l4.986.936v-2.862l-12.6-2.34v2.862l4.878.9v5.04l-4.878-.918v2.844l12.6 2.34zM34.766 14.164V5.992l-2.448-.45v5.328l-2.682-.504V6.01l-2.43-.468v4.374l-2.61-.486V4.3l-2.43-.45v7.974l12.6 2.34zM52.766 308v-2.844l-12.6-2.34v2.844l12.6 2.34zM52.766 301.594v-2.754l-7.92-1.476v-.108l7.92-3.51v-2.988l-12.6-2.34v2.754l7.92 1.476v.108l-7.92 3.51v2.988l12.6 2.34zM52.766 284.436v-2.862l-10.134-1.872v-3.528l-2.466-.468v9.9l2.466.468v-3.528l10.134 1.89zM52.766 275.246v-8.172l-2.448-.45v5.328l-2.682-.504v-4.356l-2.43-.468v4.374l-2.61-.486v-5.13l-2.43-.45v7.974l12.6 2.34zM52.766 264.059v-2.844l-4.212-.774v-1.746l2.682-.828c.99-.288 1.53-.936 1.53-2.178v-1.458l-2.466-.45v.63c0 .522-.162.81-.738 1.044l-1.566.558c-.81-1.782-2.484-2.988-4.41-2.988-2.016 0-3.42 1.494-3.42 3.762v4.932l12.6 2.34zm-6.642-4.086l-3.528-.648v-1.8c0-.972.54-1.566 1.35-1.566 1.278 0 2.178.972 2.178 2.196v1.818zM52.766 248.321v-2.934l-12.6-7.02v3.132l8.748 4.536v.144l-8.748 1.278v3.168l12.6-2.304zM52.766 238.151v-8.172l-2.448-.45v5.328l-2.682-.504v-4.356l-2.43-.468v4.374l-2.61-.486v-5.13l-2.43-.45v7.974l12.6 2.34zM52.766 226.963v-2.754l-7.92-1.476v-.108l7.92-3.51v-2.988l-12.6-2.34v2.754l7.92 1.476v.108l-7.92 3.51v2.988l12.6 2.34zM52.766 209.805v-2.862l-10.134-1.872v-3.528l-2.466-.468v9.9l2.466.468v-3.528l10.134 1.89zM52.766 200.616v-2.844l-12.6-2.34v2.844l12.6 2.34zM53 188.195c0-4.59-3.528-8.028-7.794-8.028-3.096 0-5.274 2.196-5.274 5.598 0 4.608 3.528 8.028 7.812 8.028 3.078 0 5.256-2.124 5.256-5.598zm-2.736-.522c0 1.926-1.242 3.114-3.006 3.114-2.538 0-4.59-2.07-4.59-4.518 0-1.908 1.278-3.096 3.024-3.096 2.538 0 4.572 2.088 4.572 4.5zM52.766 178.417v-2.754l-7.92-1.476v-.108l7.92-3.51v-2.988l-12.6-2.34v2.754l7.92 1.476v.108l-7.92 3.51v2.988l12.6 2.34zM52.766 164.013v-8.172l-2.448-.45v5.328l-2.682-.504v-4.356l-2.43-.468v4.374l-2.61-.486v-5.13l-2.43-.45v7.974l12.6 2.34zM52.766 152.825v-2.754l-7.92-1.476v-.108l7.92-3.51v-2.988l-12.6-2.34v2.754l7.92 1.476v.108l-7.92 3.51v2.988l12.6 2.34z" fill="#000"/></svg>