<svg width="317" height="57" viewBox="0 0 317 57" fill="none" xmlns="http://www.w3.org/2000/svg">
<path d="M0 18.56H5.94C8.82 18.56 11.1 16.34 11.1 13.72C11.1 12.38 10.32 11.58 9.6 11.24L9.62 11.12C10.98 10.4 11.78 9.02 11.78 7.56C11.78 5.82 10.52 4.56 8.08 4.56H2.6L0 18.56ZM4.58 10.18L5.12 7.14H7.18C8.06 7.14 8.6 7.62 8.6 8.32C8.6 9.36 7.72 10.18 6.62 10.18H4.58ZM3.52 15.9L4.16 12.46H6.14C7.04 12.46 7.78 12.88 7.78 13.8C7.78 15.02 6.86 15.9 5.56 15.9H3.52Z" fill="black"/>
<path d="M17.9247 18.82C21.7247 18.82 23.9047 16.72 24.5447 13.22L26.1647 4.56H22.9847L21.3847 13.2C21.0847 14.84 20.0247 15.84 18.3847 15.84C16.6847 15.84 16.0447 14.84 16.3247 13.22L17.9447 4.56H14.7647L13.1647 13.24C12.5647 16.52 14.4447 18.82 17.9247 18.82Z" fill="black"/>
<path d="M26.1914 18.56H29.2514L30.8914 9.76H31.0114L34.9114 18.56H38.2314L40.8314 4.56H37.7714L36.1314 13.36H36.0114L32.1114 4.56H28.7914L26.1914 18.56Z" fill="black"/>
<path d="M40.9961 18.56H46.2761C51.3161 18.56 54.6361 14.96 54.6361 10.06C54.6361 6.8 52.4561 4.56 48.5761 4.56H43.5961L40.9961 18.56ZM44.6761 15.82L46.2361 7.3H47.9161C49.7161 7.3 51.2961 8.2 51.2961 10.44C51.2961 13.52 49.1961 15.82 46.3361 15.82H44.6761Z" fill="black"/>
<path d="M55.3711 18.56H64.4511L64.9511 15.84H59.0311L59.5911 12.86H64.4311L64.9511 10.16H60.0911L60.6311 7.26H66.3311L66.8311 4.56H57.9711L55.3711 18.56Z" fill="black"/>
<path d="M71.2816 18.82C75.3416 18.82 77.6216 16.78 77.6216 13.52C77.6216 9.24 71.1616 10.6 71.1616 8.64C71.1616 7.74 72.0616 7.12 73.3016 7.12C74.6016 7.12 75.2216 7.8 75.0616 8.76H78.2016C78.6416 5.8 76.6616 4.3 73.7416 4.3C70.2816 4.3 67.9016 6.26 67.9016 9.3C67.9016 13.66 74.2216 12.28 74.2216 14.28C74.2216 15.32 73.2416 15.92 71.8016 15.92C70.2216 15.92 69.4416 15.16 69.6416 14H66.6216C66.0816 16.88 67.9016 18.82 71.2816 18.82Z" fill="black"/>
<path d="M81.2895 18.56H85.0095L89.0095 9.1H89.1895L89.6695 18.56H93.4095L99.6495 4.56H96.1695L92.4495 13.66H92.2895L91.8895 4.56H87.9895L84.2095 13.66H84.0495L83.6895 4.56H80.2495L81.2895 18.56Z" fill="black"/>
<path d="M98.6914 18.56H107.771L108.271 15.84H102.351L102.911 12.86H107.751L108.271 10.16H103.411L103.951 7.26H109.651L110.151 4.56H101.291L98.6914 18.56Z" fill="black"/>
<path d="M109.922 18.56H113.082L115.682 4.56H112.522L109.922 18.56Z" fill="black"/>
<path d="M118.9 18.56H122.08L124.16 7.3H128.08L128.6 4.56H117.6L117.08 7.3H121L118.9 18.56Z" fill="black"/>
<path d="M127.91 18.56H136.99L137.49 15.84H131.57L132.13 12.86H136.97L137.49 10.16H132.63L133.17 7.26H138.87L139.37 4.56H130.51L127.91 18.56Z" fill="black"/>
<path d="M154.677 14.96L152.797 10.04L158.437 4.56H154.477L149.177 9.9H149.057L150.057 4.56H146.897L144.297 18.56H147.457L148.257 14.46L150.257 12.52L151.937 16.86C152.357 17.92 153.057 18.56 154.377 18.56H155.857L156.357 15.82H155.837C155.257 15.82 154.917 15.6 154.677 14.96Z" fill="black"/>
<path d="M164.015 2.96C164.995 2.96 165.795 2.16 165.795 1.18C165.795 0.5 165.335 0 164.575 0C163.635 0 162.795 0.84 162.795 1.78C162.795 2.46 163.295 2.96 164.015 2.96ZM167.995 2.96C168.935 2.96 169.755 2.12 169.755 1.2C169.755 0.519999 169.255 0 168.535 0C167.555 0 166.755 0.799999 166.755 1.8C166.755 2.48 167.215 2.96 167.995 2.96ZM163.315 18.82C167.115 18.82 169.295 16.72 169.935 13.22L171.555 4.56H168.375L166.775 13.2C166.475 14.84 165.415 15.84 163.775 15.84C162.075 15.84 161.435 14.84 161.715 13.22L163.335 4.56H160.155L158.555 13.24C157.955 16.52 159.835 18.82 163.315 18.82Z" fill="black"/>
<path d="M171.582 18.56H174.642L176.282 9.76H176.402L180.302 18.56H183.622L186.222 4.56H183.162L181.522 13.36H181.402L177.502 4.56H174.182L171.582 18.56Z" fill="black"/>
<path d="M191.067 18.82C195.127 18.82 197.407 16.78 197.407 13.52C197.407 9.24 190.947 10.6 190.947 8.64C190.947 7.74 191.847 7.12 193.087 7.12C194.387 7.12 195.007 7.8 194.847 8.76H197.987C198.427 5.8 196.447 4.3 193.527 4.3C190.067 4.3 187.687 6.26 187.687 9.3C187.687 13.66 194.007 12.28 194.007 14.28C194.007 15.32 193.027 15.92 191.587 15.92C190.007 15.92 189.227 15.16 189.427 14H186.407C185.867 16.88 187.687 18.82 191.067 18.82Z" fill="black"/>
<path d="M201.615 18.56H204.795L206.875 7.3H210.795L211.315 4.56H200.315L199.795 7.3H203.715L201.615 18.56Z" fill="black"/>
<path d="M210.625 18.56H219.265L219.805 15.74H214.325L216.385 4.56H213.225L210.625 18.56Z" fill="black"/>
<path d="M221.367 18.56H230.447L230.947 15.84H225.027L225.587 12.86H230.427L230.947 10.16H226.087L226.627 7.26H232.327L232.827 4.56H223.967L221.367 18.56Z" fill="black"/>
<path d="M232.598 18.56H235.758L236.618 13.88H238.558L239.478 16.86C239.798 17.96 240.518 18.56 241.898 18.56H243.518L244.018 15.82H243.318C242.738 15.82 242.418 15.64 242.158 15L241.538 13.26C243.518 12.36 244.858 10.5 244.858 8.36C244.858 6.12 243.198 4.56 240.678 4.56H235.198L232.598 18.56ZM237.138 11.18L237.858 7.26H239.858C240.938 7.26 241.598 7.86 241.598 8.76C241.598 10.18 240.518 11.18 239.158 11.18H237.138Z" fill="black"/>
<path d="M245.547 18.56H254.187L254.727 15.74H249.247L251.307 4.56H248.147L245.547 18.56Z" fill="black"/>
<path d="M256.289 18.56H259.449L262.049 4.56H258.889L256.289 18.56Z" fill="black"/>
<path d="M266.887 18.82C270.947 18.82 273.227 16.78 273.227 13.52C273.227 9.24 266.767 10.6 266.767 8.64C266.767 7.74 267.667 7.12 268.907 7.12C270.207 7.12 270.827 7.8 270.667 8.76H273.807C274.247 5.8 272.267 4.3 269.347 4.3C265.887 4.3 263.507 6.26 263.507 9.3C263.507 13.66 269.827 12.28 269.827 14.28C269.827 15.32 268.847 15.92 267.407 15.92C265.827 15.92 265.047 15.16 265.247 14H262.227C261.687 16.88 263.507 18.82 266.887 18.82Z" fill="black"/>
<path d="M281.115 18.82C285.335 18.82 288.235 16.5 289.215 13.42H285.755C285.075 14.76 283.555 15.78 281.675 15.78C279.575 15.78 278.295 14.44 278.295 12.48C278.295 9.68 280.535 7.34 283.235 7.34C285.035 7.34 286.195 8.38 286.315 9.76H289.755C289.735 6.68 287.595 4.3 283.795 4.3C278.615 4.3 274.955 8.28 274.955 13.02C274.955 16.4 277.295 18.82 281.115 18.82Z" fill="black"/>
<path d="M290.488 18.56H293.648L294.668 13.02H300.268L299.228 18.56H302.408L305.008 4.56H301.828L300.828 9.98H295.228L296.248 4.56H293.088L290.488 18.56Z" fill="black"/>
<path d="M305.156 18.56H314.236L314.736 15.84H308.816L309.376 12.86H314.216L314.736 10.16H309.876L310.416 7.26H316.116L316.616 4.56H307.756L305.156 18.56Z" fill="black"/>
<path d="M5.62 37.82C9.42 37.82 11.6 35.72 12.24 32.22L13.86 23.56H10.68L9.08 32.2C8.78 33.84 7.72 34.84 6.08 34.84C4.38 34.84 3.74 33.84 4.02 32.22L5.64 23.56H2.46L0.86 32.24C0.26 35.52 2.14 37.82 5.62 37.82Z" fill="black"/>
<path d="M13.8867 37.56H16.9467L18.5867 28.76H18.7067L22.6067 37.56H25.9267L28.5267 23.56H25.4667L23.8267 32.36H23.7067L19.8067 23.56H16.4867L13.8867 37.56Z" fill="black"/>
<path d="M28.6914 37.56H33.9714C39.0114 37.56 42.3314 33.96 42.3314 29.06C42.3314 25.8 40.1514 23.56 36.2714 23.56H31.2914L28.6914 37.56ZM32.3714 34.82L33.9314 26.3H35.6114C37.4114 26.3 38.9914 27.2 38.9914 29.44C38.9914 32.52 36.8914 34.82 34.0314 34.82H32.3714Z" fill="black"/>
<path d="M47.7027 37.56H58.4827L58.9827 34.84H52.2827L52.3227 34.68L60.5227 26.3L61.0427 23.56H50.5427L50.0427 26.26H56.4427L56.4027 26.42L48.2027 34.8L47.7027 37.56Z" fill="black"/>
<path d="M60.7227 37.56H63.8827L66.4827 23.56H63.3227L60.7227 37.56Z" fill="black"/>
<path d="M70.6806 37.56H73.9406L81.7406 23.56H78.2606L73.2206 33.28H73.0606L71.6406 23.56H68.1206L70.6806 37.56Z" fill="black"/>
<path d="M80.7812 37.56H83.9413L86.5413 23.56H83.3813L80.7812 37.56Z" fill="black"/>
<path d="M86.6992 37.56H95.3392L95.8792 34.74H90.3992L92.4592 23.56H89.2992L86.6992 37.56Z" fill="black"/>
<path d="M103.46 37.82C108.16 37.82 111.62 34.9 112.06 29.92H104.74L104.26 32.52H108.06C107.58 33.8 105.94 34.86 103.96 34.86C101.82 34.86 100.58 33.48 100.58 31.52C100.58 28.66 102.8 26.34 105.54 26.34C107.26 26.34 108.34 27.24 108.6 28.44H112.08C111.94 25.54 109.78 23.3 106.1 23.3C100.92 23.3 97.2402 27.26 97.2402 32.04C97.2402 35.42 99.6402 37.82 103.46 37.82Z" fill="black"/>
<path d="M112.852 37.56H121.932L122.432 34.84H116.512L117.072 31.86H121.912L122.432 29.16H117.572L118.112 26.26H123.812L124.312 23.56H115.452L112.852 37.56Z" fill="black"/>
<path d="M128.762 37.82C132.822 37.82 135.102 35.78 135.102 32.52C135.102 28.24 128.642 29.6 128.642 27.64C128.642 26.74 129.542 26.12 130.782 26.12C132.082 26.12 132.702 26.8 132.542 27.76H135.682C136.122 24.8 134.142 23.3 131.222 23.3C127.762 23.3 125.382 25.26 125.382 28.3C125.382 32.66 131.702 31.28 131.702 33.28C131.702 34.32 130.722 34.92 129.282 34.92C127.702 34.92 126.922 34.16 127.122 33H124.102C123.562 35.88 125.382 37.82 128.762 37.82Z" fill="black"/>
<path d="M136.25 37.56H145.33L145.83 34.84H139.91L140.47 31.86H145.31L145.83 29.16H140.97L141.51 26.26H147.21L147.71 23.56H138.85L136.25 37.56Z" fill="black"/>
<path d="M147.48 37.56H156.12L156.66 34.74H151.18L153.24 23.56H150.08L147.48 37.56Z" fill="black"/>
<path d="M158.223 37.56H166.863L167.403 34.74H161.923L163.983 23.56H160.823L158.223 37.56Z" fill="black"/>
<path d="M173.645 37.82C177.705 37.82 179.985 35.78 179.985 32.52C179.985 28.24 173.525 29.6 173.525 27.64C173.525 26.74 174.425 26.12 175.665 26.12C176.965 26.12 177.585 26.8 177.425 27.76H180.565C181.005 24.8 179.025 23.3 176.105 23.3C172.645 23.3 170.265 25.26 170.265 28.3C170.265 32.66 176.585 31.28 176.585 33.28C176.585 34.32 175.605 34.92 174.165 34.92C172.585 34.92 171.805 34.16 172.005 33H168.985C168.445 35.88 170.265 37.82 173.645 37.82Z" fill="black"/>
<path d="M187.873 37.82C192.093 37.82 194.993 35.5 195.973 32.42H192.513C191.833 33.76 190.313 34.78 188.433 34.78C186.333 34.78 185.053 33.44 185.053 31.48C185.053 28.68 187.293 26.34 189.993 26.34C191.793 26.34 192.953 27.38 193.073 28.76H196.513C196.493 25.68 194.353 23.3 190.553 23.3C185.373 23.3 181.713 27.28 181.713 32.02C181.713 35.4 184.053 37.82 187.873 37.82Z" fill="black"/>
<path d="M197.246 37.56H200.406L201.426 32.02H207.026L205.986 37.56H209.166L211.766 23.56H208.586L207.586 28.98H201.986L203.006 23.56H199.846L197.246 37.56Z" fill="black"/>
<path d="M210.794 37.56H214.174L215.454 35.08H220.734L221.094 37.56H224.414L222.194 23.56H218.134L210.794 37.56ZM216.754 32.26L219.434 27.04H219.614L220.374 32.26H216.754Z" fill="black"/>
<path d="M226.055 37.56H229.215L230.215 32.18H235.335L235.835 29.48H230.715L231.315 26.26H237.015L237.515 23.56H228.655L226.055 37.56Z" fill="black"/>
<path d="M240.15 37.56H243.33L245.41 26.3H249.33L249.85 23.56H238.85L238.33 26.3H242.25L240.15 37.56Z" fill="black"/>
<path d="M249.16 37.56H257.8L258.34 34.74H252.86L254.92 23.56H251.76L249.16 37.56Z" fill="black"/>
<path d="M259.902 37.56H263.062L265.662 23.56H262.502L259.902 37.56Z" fill="black"/>
<path d="M272.443 37.82C276.663 37.82 279.563 35.5 280.543 32.42H277.083C276.403 33.76 274.883 34.78 273.003 34.78C270.903 34.78 269.623 33.44 269.623 31.48C269.623 28.68 271.863 26.34 274.563 26.34C276.363 26.34 277.523 27.38 277.643 28.76H281.083C281.063 25.68 278.923 23.3 275.123 23.3C269.943 23.3 266.283 27.28 266.283 32.02C266.283 35.4 268.623 37.82 272.443 37.82Z" fill="black"/>
<path d="M281.816 37.56H284.976L285.996 32.02H291.596L290.556 37.56H293.736L296.336 23.56H293.156L292.156 28.98H286.556L287.576 23.56H284.416L281.816 37.56Z" fill="black"/>
<path d="M296.484 37.56H305.564L306.064 34.84H300.144L300.704 31.86H305.544L306.064 29.16H301.204L301.744 26.26H307.444L307.944 23.56H299.084L296.484 37.56Z" fill="black"/>
<path d="M0 56.56H3.16L5.76 42.56H2.6L0 56.56Z" fill="black"/>
<path d="M5.91797 56.56H8.97797L10.618 47.76H10.738L14.638 56.56H17.958L20.558 42.56H17.498L15.858 51.36H15.738L11.838 42.56H8.51797L5.91797 56.56Z" fill="black"/>
<path d="M23.7827 56.56H26.9627L29.0427 45.3H32.9627L33.4827 42.56H22.4827L21.9627 45.3H25.8827L23.7827 56.56Z" fill="black"/>
<path d="M32.793 56.56H41.873L42.373 53.84H36.453L37.013 50.86H41.853L42.373 48.16H37.513L38.053 45.26H43.753L44.253 42.56H35.393L32.793 56.56Z" fill="black"/>
<path d="M44.0234 56.56H47.1834L48.0434 51.88H49.9834L50.9034 54.86C51.2234 55.96 51.9434 56.56 53.3234 56.56H54.9434L55.4434 53.82H54.7434C54.1634 53.82 53.8434 53.64 53.5834 53L52.9634 51.26C54.9434 50.36 56.2834 48.5 56.2834 46.36C56.2834 44.12 54.6234 42.56 52.1034 42.56H46.6234L44.0234 56.56ZM48.5634 49.18L49.2834 45.26H51.2834C52.3634 45.26 53.0234 45.86 53.0234 46.76C53.0234 48.18 51.9434 49.18 50.5834 49.18H48.5634Z" fill="black"/>
<path d="M60.3095 56.56H63.5695L71.3695 42.56H67.8895L62.8495 52.28H62.6895L61.2695 42.56H57.7495L60.3095 56.56Z" fill="black"/>
<path d="M70.4102 56.56H79.4902L79.9902 53.84H74.0702L74.6302 50.86H79.4702L79.9902 48.16H75.1302L75.6702 45.26H81.3702L81.8702 42.56H73.0102L70.4102 56.56Z" fill="black"/>
<path d="M81.6406 56.56H84.7006L86.3406 47.76H86.4606L90.3606 56.56H93.6806L96.2806 42.56H93.2206L91.5806 51.36H91.4606L87.5606 42.56H84.2406L81.6406 56.56Z" fill="black"/>
<path d="M99.5053 56.56H102.685L104.765 45.3H108.685L109.205 42.56H98.2053L97.6853 45.3H101.605L99.5053 56.56Z" fill="black"/>
<path d="M108.516 56.56H111.676L114.276 42.56H111.116L108.516 56.56Z" fill="black"/>
<path d="M121.116 56.82C126.216 56.82 130.036 52.9 130.036 48.16C130.036 44.72 127.596 42.3 123.816 42.3C118.696 42.3 114.896 46.22 114.896 50.98C114.896 54.4 117.256 56.82 121.116 56.82ZM121.696 53.78C119.556 53.78 118.236 52.4 118.236 50.44C118.236 47.62 120.536 45.34 123.256 45.34C125.376 45.34 126.696 46.76 126.696 48.7C126.696 51.52 124.376 53.78 121.696 53.78Z" fill="black"/>
<path d="M130.781 56.56H133.841L135.481 47.76H135.601L139.501 56.56H142.821L145.421 42.56H142.361L140.721 51.36H140.601L136.701 42.56H133.381L130.781 56.56Z" fill="black"/>
<path d="M145.586 56.56H154.666L155.166 53.84H149.246L149.806 50.86H154.646L155.166 48.16H150.306L150.846 45.26H156.546L157.046 42.56H148.186L145.586 56.56Z" fill="black"/>
<path d="M156.816 56.56H159.876L161.516 47.76H161.636L165.536 56.56H168.856L171.456 42.56H168.396L166.756 51.36H166.636L162.736 42.56H159.416L156.816 56.56Z" fill="black"/>
</svg>
