<svg
  width="286"
  height="30"
  viewBox="0 0 286 30"
  fill="none"
  xmlns="http://www.w3.org/2000/svg"
>
<path
    d="M0.4 29H19.4L20.44 23.52H7.88L7.96 23.16C8.12 22.08 8.8 21.36 10.32 20.48L16.4 17.2C19.72 15.36 23.28 12.56 23.28 7.6C23.28 3.64 20.32 0.479998 14.96 0.479998C8.64 0.479998 4.72 4.8 3.96 9.6H9.84C10.12 7.88 11.64 6.28 13.88 6.28C15.84 6.28 16.84 7.32 16.84 8.72C16.84 10.4 15.48 11.64 13.96 12.48L8.16 15.68C3.92 18 2 20.32 1.32 24L0.4 29ZM30.4766 29H36.7566L41.9566 0.999998H36.1566C35.6366 3.84 33.7566 5.28 28.3566 5.28L27.5166 9.96H34.0366L30.4766 29ZM44.8053 29.52C47.0853 29.52 48.9253 27.72 48.9253 25.56C48.9253 24 47.8053 22.88 46.0453 22.88C43.8853 22.88 41.9653 24.76 41.9653 26.84C41.9653 28.44 43.1653 29.52 44.8053 29.52ZM54.6172 29H60.8972L66.0972 0.999998H60.2972C59.7772 3.84 57.8972 5.28 52.4972 5.28L51.6572 9.96H58.1772L54.6172 29ZM76.4919 29.52C82.1319 29.52 86.7719 26.2 87.8519 20.2L89.7719 9.8C90.8519 3.84 86.4519 0.479998 81.4919 0.479998C75.8919 0.479998 71.2519 3.8 70.1719 9.8L68.2519 20.2C67.1319 26.16 71.5319 29.52 76.4919 29.52ZM77.4119 23.56C75.4119 23.56 74.1319 22.12 74.5719 19.8L76.3719 10.2C76.8119 7.88 78.4519 6.44 80.5719 6.44C82.5719 6.44 83.8919 7.88 83.4119 10.2L81.6519 19.8C81.2519 22.04 79.6519 23.56 77.4119 23.56ZM92.3053 29.52C94.5853 29.52 96.4253 27.72 96.4253 25.56C96.4253 24 95.3053 22.88 93.5453 22.88C91.3853 22.88 89.4653 24.76 89.4653 26.84C89.4653 28.44 90.6653 29.52 92.3053 29.52ZM101.682 19.36H123.722L124.682 14.16H102.642L101.682 19.36ZM127.075 29H134.195L147.955 6.36L148.955 0.959999H130.315L129.235 6.6H140.875L140.835 6.88L127.075 29ZM145.352 29.52C147.632 29.52 149.472 27.72 149.472 25.56C149.472 24 148.352 22.88 146.592 22.88C144.432 22.88 142.512 24.76 142.512 26.84C142.512 28.44 143.712 29.52 145.352 29.52ZM155.164 29H161.444L166.644 0.999998H160.844C160.324 3.84 158.444 5.28 153.044 5.28L152.204 9.96H158.724L155.164 29ZM173.719 29H179.999L185.199 0.999998H179.399C178.879 3.84 176.999 5.28 171.599 5.28L170.759 9.96H177.279L173.719 29ZM188.048 29.52C190.328 29.52 192.168 27.72 192.168 25.56C192.168 24 191.048 22.88 189.288 22.88C187.128 22.88 185.208 24.76 185.208 26.84C185.208 28.44 186.408 29.52 188.048 29.52ZM196.064 29H215.064L216.104 23.52H203.544L203.624 23.16C203.784 22.08 204.464 21.36 205.984 20.48L212.064 17.2C215.384 15.36 218.944 12.56 218.944 7.6C218.944 3.64 215.984 0.479998 210.624 0.479998C204.304 0.479998 200.384 4.8 199.624 9.6H205.504C205.784 7.88 207.304 6.28 209.544 6.28C211.504 6.28 212.504 7.32 212.504 8.72C212.504 10.4 211.144 11.64 209.624 12.48L203.824 15.68C199.584 18 197.664 20.32 196.984 24L196.064 29ZM229.461 29.52C235.101 29.52 239.741 26.2 240.821 20.2L242.741 9.8C243.821 3.84 239.421 0.479998 234.461 0.479998C228.861 0.479998 224.221 3.8 223.141 9.8L221.221 20.2C220.101 26.16 224.501 29.52 229.461 29.52ZM230.381 23.56C228.381 23.56 227.101 22.12 227.541 19.8L229.341 10.2C229.781 7.88 231.421 6.44 233.541 6.44C235.541 6.44 236.861 7.88 236.381 10.2L234.621 19.8C234.221 22.04 232.621 23.56 230.381 23.56ZM244.033 29H263.033L264.073 23.52H251.513L251.593 23.16C251.753 22.08 252.433 21.36 253.953 20.48L260.033 17.2C263.353 15.36 266.913 12.56 266.913 7.6C266.913 3.64 263.953 0.479998 258.593 0.479998C252.273 0.479998 248.353 4.8 247.593 9.6H253.473C253.753 7.88 255.273 6.28 257.513 6.28C259.473 6.28 260.473 7.32 260.473 8.72C260.473 10.4 259.113 11.64 257.593 12.48L251.793 15.68C247.553 18 245.633 20.32 244.953 24L244.033 29ZM274.109 29H280.389L285.589 0.999998H279.789C279.269 3.84 277.389 5.28 271.989 5.28L271.149 9.96H277.669L274.109 29Z"
    fill="black"
  />
</svg>
